<?xml version="1.0" encoding="utf-8"?>
<!-- Generator: Adobe Illustrator 16.0.0, SVG Export Plug-In . SVG Version: 6.00 Build 0)  -->
<!DOCTYPE svg PUBLIC "-//W3C//DTD SVG 1.1//EN" "http://www.w3.org/Graphics/SVG/1.1/DTD/svg11.dtd">
<svg version="1.1" id="Layer_1" xmlns="http://www.w3.org/2000/svg" xmlns:xlink="http://www.w3.org/1999/xlink" x="0px" y="0px"
	 width="15px" height="15px" viewBox="0 0 15 15" enable-background="new 0 0 15 15" xml:space="preserve">
<g>
	<path fill="#666666" d="M10.617,1.522c0.83,0,1.504,0.675,1.504,1.505c0,0.829-0.674,1.504-1.504,1.504
		c-0.318,0-0.623-0.101-0.885-0.29L9.273,3.908L9.145,3.332C9.123,3.23,9.111,3.128,9.111,3.027
		C9.111,2.198,9.787,1.522,10.617,1.522 M3.46,6.175c0.318,0,0.624,0.1,0.883,0.289l0.48,0.35L4.93,7.349
		c0.024,0.119,0.036,0.229,0.036,0.33c0,0.072-0.01,0.156-0.027,0.257L4.834,8.514L4.391,8.859C4.201,9.007,3.886,9.183,3.46,9.183
		c-0.831,0-1.506-0.675-1.506-1.504S2.629,6.175,3.46,6.175 M10.617,10.465c0.83,0,1.504,0.677,1.504,1.509
		c0,0.829-0.674,1.503-1.504,1.503s-1.506-0.674-1.506-1.503c0-0.083,0.008-0.167,0.023-0.249l0.113-0.583l0.447-0.356
		C9.955,10.578,10.283,10.465,10.617,10.465 M10.617,0.522c-1.383,0-2.506,1.12-2.506,2.505c0,0.179,0.021,0.354,0.059,0.523
		L4.933,5.655c-0.414-0.302-0.922-0.48-1.473-0.48c-1.387,0-2.506,1.12-2.506,2.504s1.119,2.504,2.506,2.504
		c0.582,0,1.119-0.203,1.545-0.534l3.148,1.887c-0.027,0.142-0.043,0.288-0.043,0.438c0,1.38,1.124,2.503,2.506,2.503
		c1.381,0,2.504-1.123,2.504-2.503c0-1.386-1.123-2.509-2.504-2.509c-0.582,0-1.121,0.201-1.543,0.537L5.923,8.113
		c0.025-0.141,0.043-0.287,0.043-0.435c0-0.181-0.021-0.357-0.055-0.524L9.145,5.05c0.414,0.302,0.922,0.481,1.473,0.481
		c1.381,0,2.504-1.123,2.504-2.504C13.121,1.643,11.998,0.522,10.617,0.522L10.617,0.522z"/>
</g>
</svg>
