<?xml version="1.0" encoding="utf-8"?>
<!-- Generator: Adobe Illustrator 16.0.0, SVG Export Plug-In . SVG Version: 6.00 Build 0)  -->
<!DOCTYPE svg PUBLIC "-//W3C//DTD SVG 1.1//EN" "http://www.w3.org/Graphics/SVG/1.1/DTD/svg11.dtd">
<svg version="1.1" id="Layer_1" xmlns="http://www.w3.org/2000/svg" xmlns:xlink="http://www.w3.org/1999/xlink" x="0px" y="0px"
	 width="15px" height="15px" viewBox="0 0 15 15" enable-background="new 0 0 15 15" xml:space="preserve">
<path fill="#139BC5" d="M10.614,9.465c-0.581,0-1.12,0.201-1.543,0.537L5.92,8.113c0.025-0.141,0.043-0.287,0.043-0.435
	c0-0.181-0.021-0.357-0.055-0.524L9.142,5.05c0.415,0.302,0.922,0.481,1.473,0.481c1.382,0,2.505-1.123,2.505-2.504
	c0-1.385-1.123-2.505-2.505-2.505c-1.383,0-2.506,1.12-2.506,2.505c0,0.179,0.021,0.354,0.059,0.523L4.93,5.655
	c-0.414-0.302-0.921-0.48-1.473-0.48c-1.386,0-2.506,1.12-2.506,2.504s1.12,2.503,2.506,2.503c0.583,0,1.119-0.203,1.545-0.533
	l3.148,1.887c-0.027,0.141-0.042,0.287-0.042,0.438c0,1.381,1.123,2.504,2.506,2.504c1.382,0,2.505-1.123,2.505-2.504
	C13.119,10.588,11.996,9.465,10.614,9.465z"/>
</svg>
