<?xml version="1.0" encoding="utf-8"?>
<!-- Generator: Adobe Illustrator 25.0.0, SVG Export Plug-In . SVG Version: 6.00 Build 0)  -->
<svg version="1.1" id="Layer_1" xmlns="http://www.w3.org/2000/svg" xmlns:xlink="http://www.w3.org/1999/xlink" x="0px" y="0px"
	 viewBox="0 0 40 40" style="enable-background:new 0 0 40 40;" xml:space="preserve">
<style type="text/css">
	.st0{fill:#FFFFFF;}
	.st1{fill:#DD156C;}
</style>
<g>
	<path class="st0" d="M40,20c0,11.04-8.95,20-20,20C8.96,40,0,31.05,0,20C0,8.95,8.96,0,20,0C31.05,0,40,8.95,40,20z"/>
	<path class="st1" d="M27.17,18.42c0.01-1.69,0.07-4.92,0.04-5.43c-0.22-3.29-3.06-6.09-6.47-6.36C20.53,6.6,20.31,6.6,20.1,6.6
		c-1.87-0.03-3.5,0.55-4.88,1.72c-1.37,1.16-2.27,2.87-2.4,4.56c-0.04,0.47-0.03,3.95-0.03,5.59c-1.37,1.57-2.2,3.62-2.2,5.84
		c0,5.02,4.22,9.08,9.41,9.08c5.21,0,9.43-4.06,9.43-9.08C29.42,22.07,28.58,20.01,27.17,18.42z M20.05,27.2c-1.1,0-2-0.89-2-2
		c0-0.67,0.33-1.27,0.85-1.63c-0.16-0.23-0.26-0.51-0.26-0.81c0-0.8,0.63-1.42,1.41-1.42c0.78,0,1.41,0.63,1.41,1.42
		c0,0.3-0.1,0.57-0.27,0.81c0.51,0.36,0.86,0.96,0.86,1.63C22.06,26.31,21.15,27.2,20.05,27.2z M20,15.24
		c-1.48,0-2.89,0.32-4.14,0.92c0.05-1.89,0.21-3.96,0.59-4.6c0.77-1.24,2.02-1.97,3.44-2c0.05,0,0.11,0,0.16,0
		c1.44,0.01,2.71,0.72,3.48,1.96c0.43,0.69,0.57,2.72,0.62,4.64C22.9,15.56,21.49,15.24,20,15.24z"/>
</g>
</svg>
