<?xml version="1.0" encoding="utf-8"?>
<!-- Generator: Adobe Illustrator 25.0.0, SVG Export Plug-In . SVG Version: 6.00 Build 0)  -->
<svg version="1.1" id="Layer_1" xmlns="http://www.w3.org/2000/svg" xmlns:xlink="http://www.w3.org/1999/xlink" x="0px" y="0px"
	 viewBox="0 0 40 40" style="enable-background:new 0 0 40 40;" xml:space="preserve">
<style type="text/css">
	.st0{fill:#FFFFFF;}
	.st1{fill:#026C68;}
</style>
<g>
	<path class="st0" d="M40,20c0,11.04-8.96,20-20,20C8.96,40,0,31.05,0,20C0,8.96,8.96,0,20,0C31.04,0,40,8.96,40,20z"/>
	<path class="st1" d="M26.83,18.65c0.46-0.63,1.15-1.57,1.4-1.98c1.67-2.79,0.94-6.53-1.68-8.53c-0.16-0.12-0.33-0.24-0.5-0.36
		c-1.5-0.98-3.15-1.36-4.93-1.13c-1.76,0.22-3.44,1.14-4.5,2.45c-0.37,0.46-1.49,2.13-1.75,2.49l2.44,1.61
		c0.05-0.08,0.11-0.16,0.17-0.24c0.97-1.42,1.74-2.54,2.83-3.05c1.31-0.62,2.74-0.55,3.92,0.17c0.04,0.03,0.08,0.05,0.12,0.08
		c1.17,0.76,1.8,2.01,1.72,3.4c-0.06,1.09-0.66,2.07-1.55,3.3c-1.33-0.72-2.87-1.14-4.51-1.14c-5.07,0-9.18,3.96-9.18,8.84
		c0,4.89,4.11,8.85,9.18,8.85c5.07,0,9.18-3.96,9.18-8.85C29.18,22.29,28.29,20.21,26.83,18.65z M20.15,27.38
		c-1.08,0-1.95-0.87-1.95-1.95c0-0.66,0.33-1.24,0.83-1.6c-0.16-0.22-0.25-0.5-0.25-0.8c0-0.76,0.61-1.38,1.37-1.38
		s1.38,0.62,1.38,1.38c0,0.29-0.09,0.57-0.25,0.8c0.5,0.35,0.82,0.94,0.82,1.6C22.1,26.51,21.22,27.38,20.15,27.38z"/>
</g>
</svg>
