<?xml version="1.0" encoding="utf-8"?>
<!-- Generator: Adobe Illustrator 25.0.0, SVG Export Plug-In . SVG Version: 6.00 Build 0)  -->
<svg version="1.1" id="Layer_1" xmlns="http://www.w3.org/2000/svg" xmlns:xlink="http://www.w3.org/1999/xlink" x="0px" y="0px"
	 viewBox="0 0 42.65 42.65" style="enable-background:new 0 0 42.65 42.65;" xml:space="preserve">
<style type="text/css">
	.st0{fill:url(#SVGID_1_);}
	.st1{fill:none;stroke:url(#SVGID_2_);stroke-width:2.6534;stroke-miterlimit:10;}
</style>
<linearGradient id="SVGID_1_" gradientUnits="userSpaceOnUse" x1="32.9995" y1="17.9899" x2="13.7932" y2="17.9899" gradientTransform="matrix(1 -1.652848e-03 1.652848e-03 1 -2.1118 3.3706)">
	<stop  offset="0" style="stop-color:#DD156C"/>
	<stop  offset="0.156" style="stop-color:#C12573"/>
	<stop  offset="0.4124" style="stop-color:#993C7D"/>
	<stop  offset="0.6474" style="stop-color:#7D4D85"/>
	<stop  offset="0.8509" style="stop-color:#6B5789"/>
	<stop  offset="1" style="stop-color:#655B8B"/>
</linearGradient>
<path class="st0" d="M17.38,35.64c-0.7,0-1.28-0.56-1.3-1.26c-0.05-1.75,0.04-3.36,0.26-4.8c-1.5,0.9-2.79,1.34-2.89,1.38
	c-0.68,0.23-1.42-0.14-1.65-0.82c-0.23-0.68,0.13-1.42,0.81-1.65l0,0c0.02-0.01,1.49-0.52,2.97-1.51c-1.44-3.26-2.06-6.75-2.31-8.74
	c-0.35-2.77,0.08-5.47,1.22-7.6c1.08-2.03,2.72-3.37,4.38-3.59c1.85-0.25,4.02,0.84,4.55,4.63c0.41,2.87,0,6.09-1.2,9.61
	c0.92-0.24,1.91-0.29,2.96-0.15c3.8,0.56,5.88,3.18,5.74,7.2l0,0.06c-0.18,2.1-1.19,3.85-2.84,4.93c-1.79,1.17-4.1,1.4-6.33,0.63
	l-0.13-0.05c-1.1-0.52-2.07-1.24-2.91-2.1c-0.05,0.79-0.06,1.62-0.03,2.5c0.02,0.72-0.54,1.32-1.26,1.34
	C17.4,35.64,17.39,35.64,17.38,35.64z M22.66,31.52c1.45,0.48,2.9,0.34,4-0.37c0.97-0.63,1.55-1.65,1.66-2.94
	c0.09-2.67-1.06-4.14-3.5-4.5c-1.43-0.2-2.65,0.14-3.6,0.99c-0.88,0.79-1.54,2.03-1.97,3.63C20.14,29.69,21.27,30.84,22.66,31.52z
	 M19.35,9.62c-0.04,0-0.09,0-0.13,0.01c-1.52,0.2-4.01,3.23-3.37,8.29c0.17,1.35,0.65,4.32,1.78,7.21c0.21-0.28,0.4-0.58,0.55-0.89
	c2.26-4.66,3.16-8.77,2.67-12.2C20.77,11.46,20.42,9.62,19.35,9.62z"/>
<linearGradient id="SVGID_2_" gradientUnits="userSpaceOnUse" x1="42.6534" y1="21.3267" x2="-9.094947e-13" y2="21.3267">
	<stop  offset="0" style="stop-color:#DD156C"/>
	<stop  offset="0.156" style="stop-color:#C12573"/>
	<stop  offset="0.4124" style="stop-color:#993C7D"/>
	<stop  offset="0.6474" style="stop-color:#7D4D85"/>
	<stop  offset="0.8509" style="stop-color:#6B5789"/>
	<stop  offset="1" style="stop-color:#655B8B"/>
</linearGradient>
<circle class="st1" cx="21.33" cy="21.33" r="20"/>
</svg>
