<?xml version="1.0" encoding="utf-8"?>
<!-- Generator: Adobe Illustrator 25.0.0, SVG Export Plug-In . SVG Version: 6.00 Build 0)  -->
<svg version="1.1" id="Layer_1" xmlns="http://www.w3.org/2000/svg" xmlns:xlink="http://www.w3.org/1999/xlink" x="0px" y="0px"
	 viewBox="0 0 80 30.34" style="enable-background:new 0 0 80 30.34;" xml:space="preserve">
<style type="text/css">
	.st0{fill:url(#SVGID_1_);}
	.st1{fill:#FFFFFF;}
</style>
<g>
	<linearGradient id="SVGID_1_" gradientUnits="userSpaceOnUse" x1="70.9422" y1="41.1325" x2="9.0578" y2="-10.7947">
		<stop  offset="0" style="stop-color:#026C69"/>
		<stop  offset="1" style="stop-color:#DC166C"/>
	</linearGradient>
	<rect class="st0" width="80" height="30.34"/>
	<g>
		<g>
			<path class="st1" d="M9.71,21.37c0-0.67,0-1.31,0-1.94c0-0.63,0-1.33,0-2.1v-4.2c0-0.8,0-1.52,0-2.16c0-0.64,0-1.31,0-1.98h2.49
				c0.58,0.84,1.13,1.64,1.64,2.39c0.52,0.75,1.03,1.5,1.55,2.25l2.01,2.92h0.2v-3.42c0-0.8,0-1.52,0-2.16c0-0.64,0-1.31,0-1.98
				h2.69c0,0.68,0,1.34,0,1.98c0,0.64,0,1.36,0,2.16v4.2c0,0.77,0,1.47,0,2.1c0,0.63,0,1.27,0,1.94h-2.46
				c-0.47-0.7-0.97-1.42-1.49-2.17c-0.53-0.76-1.1-1.58-1.72-2.46l-2.03-2.96h-0.2v3.55c0,0.77,0,1.47,0,2.1c0,0.63,0,1.27,0,1.94
				H9.71z"/>
			<path class="st1" d="M27.85,21.6c-1.27,0-2.28-0.2-3.05-0.6c-0.76-0.41-1.32-0.98-1.66-1.73c-0.35-0.75-0.52-1.63-0.52-2.65
				c0-0.23,0-0.53,0-0.9c0-0.38,0-0.79,0-1.24c0-0.44,0-0.89,0-1.34c0-0.8,0-1.52,0-2.16c0-0.64,0-1.31,0-1.98h2.84
				c0,0.68,0,1.34,0,1.98c0,0.64,0,1.36,0,2.16v3.32c0,0.59,0.09,1.1,0.25,1.51c0.16,0.41,0.42,0.73,0.77,0.95
				c0.35,0.23,0.8,0.33,1.37,0.33s1.02-0.1,1.37-0.33c0.34-0.21,0.59-0.54,0.75-0.95c0.15-0.42,0.23-0.93,0.23-1.53v-3.31
				c0-0.8,0-1.52,0-2.16c0-0.64,0-1.31,0-1.98h2.85c0,0.68,0,1.34,0,1.98c0,0.64,0,1.36,0,2.16c0,0.45,0,0.9,0,1.36
				c0,0.45,0,0.87,0,1.24c0,0.38,0,0.68,0,0.89c0,1.02-0.18,1.9-0.54,2.64c-0.36,0.75-0.93,1.32-1.7,1.73
				C30.02,21.4,29.04,21.6,27.85,21.6z"/>
			<path class="st1" d="M35.36,21.37c0-0.68,0-1.32,0-1.94s0-1.32,0-2.09v-4.2c0-0.8,0-1.52,0-2.16c0-0.64,0-1.31,0-1.98h8.22v2.33
				c-0.53,0-1.1,0-1.71,0c-0.61,0-1.32,0-2.16,0h-2.93l1.38-1.88c0,0.68,0,1.34,0,1.98c0,0.64,0,1.36,0,2.16v3.3
				c0,0.77,0,1.47,0,2.1c0,0.63,0,1.27,0,1.94l-1.19-1.89h2.94c0.69,0,1.34,0,1.96,0c0.62,0,1.21,0,1.77,0v2.34H35.36z M37.5,16.22
				v-2.18h2.27c0.76,0,1.41,0,1.96,0c0.55,0,1.07,0,1.58,0v2.18c-0.53,0-1.07,0-1.62,0c-0.54,0-1.19,0-1.92,0H37.5z"/>
			<path class="st1" d="M48.73,21.37c-0.19-0.62-0.4-1.28-0.61-1.98c-0.21-0.7-0.42-1.36-0.6-1.95l-1.21-3.88
				c-0.15-0.44-0.29-0.92-0.45-1.44c-0.17-0.53-0.33-1.06-0.5-1.59c-0.17-0.54-0.33-1.05-0.47-1.54h3.16
				c0.21,0.79,0.43,1.62,0.67,2.5c0.24,0.89,0.45,1.72,0.66,2.51l1.18,4.46h0.2l1.23-4.49c0.21-0.8,0.45-1.62,0.68-2.48
				c0.24-0.86,0.46-1.7,0.69-2.5h3.07c-0.16,0.5-0.32,1.01-0.47,1.54c-0.17,0.54-0.33,1.06-0.5,1.57c-0.16,0.51-0.31,0.99-0.45,1.45
				l-1.22,3.9c-0.19,0.6-0.4,1.25-0.61,1.94c-0.21,0.68-0.42,1.34-0.61,1.97H48.73z"/>
			<path class="st1" d="M63.94,21.6c-1.12,0-2.08-0.18-2.89-0.51c-0.81-0.35-1.49-0.82-2.01-1.42c-0.53-0.6-0.93-1.28-1.18-2.05
				c-0.26-0.77-0.4-1.58-0.4-2.43c0-1.2,0.24-2.29,0.72-3.27c0.47-0.98,1.19-1.75,2.14-2.33c0.94-0.57,2.12-0.86,3.54-0.86
				c1.08,0,2.02,0.17,2.83,0.5c0.8,0.33,1.47,0.8,2.01,1.38c0.53,0.59,0.94,1.27,1.2,2.05c0.27,0.78,0.4,1.61,0.4,2.5
				c0,1.23-0.24,2.33-0.72,3.29c-0.5,0.97-1.21,1.73-2.16,2.29C66.47,21.33,65.32,21.6,63.94,21.6z M63.9,19.25
				c0.58,0,1.07-0.1,1.5-0.32c0.43-0.22,0.79-0.51,1.07-0.9c0.28-0.38,0.5-0.81,0.63-1.31c0.15-0.49,0.21-1.01,0.21-1.55
				c0-0.57-0.08-1.11-0.23-1.6c-0.16-0.5-0.38-0.93-0.67-1.3c-0.29-0.37-0.66-0.66-1.07-0.87c-0.43-0.2-0.9-0.31-1.46-0.31
				s-1.05,0.11-1.48,0.32c-0.43,0.21-0.79,0.51-1.08,0.89c-0.28,0.38-0.51,0.82-0.66,1.31c-0.16,0.5-0.23,1.02-0.23,1.57
				c0,0.55,0.07,1.07,0.21,1.55c0.15,0.49,0.36,0.93,0.64,1.31c0.29,0.38,0.64,0.67,1.07,0.89C62.82,19.14,63.32,19.25,63.9,19.25z"
				/>
		</g>
	</g>
</g>
</svg>
