<?xml version="1.0" encoding="utf-8"?>
<!-- Generator: Adobe Illustrator 25.0.0, SVG Export Plug-In . SVG Version: 6.00 Build 0)  -->
<svg version="1.1" id="Layer_1" xmlns="http://www.w3.org/2000/svg" xmlns:xlink="http://www.w3.org/1999/xlink" x="0px" y="0px"
	 viewBox="0 0 40 36.88" style="enable-background:new 0 0 40 36.88;" xml:space="preserve">
<style type="text/css">
	.st0{fill:#666666;}
	.st1{clip-path:url(#SVGID_4_);}
	.st2{clip-path:url(#SVGID_6_);fill:#666666;}
</style>
<g>
	<g>
		<path id="SVGID_1_" class="st0" d="M19.86,36.88c-0.88,0-1.72-0.35-2.38-1l-9.9-9.35C1.79,20.78-3.75,13.89,3.33,4.77
			c2.4-3.08,5.53-4.71,9.09-4.71c3.24,0,6.26,1.33,7.77,2.22C25-1.67,32.73-0.27,36.52,4.8c7.11,8.25,2.15,15.32-4.29,21.7
			l-10.01,9.41C21.6,36.53,20.74,36.88,19.86,36.88z M12.42,3.33c-2.57,0-4.7,1.13-6.5,3.45c-4.98,6.42-2.59,10.9,3.94,17.41
			l10,9.41c0,0,0.04,0,0.08-0.05l10.02-9.4c7.61-7.56,8.62-11.95,4-17.31c-3-4.03-9.19-4.9-12.6-1.4l-1.17,1.04l-0.97-0.85
			C19.18,5.61,16.03,3.33,12.42,3.33z"/>
	</g>
	<g>
		<defs>
			<path id="SVGID_2_" d="M19.86,36.88c-0.88,0-1.72-0.35-2.38-1l-9.9-9.35C1.79,20.78-3.75,13.89,3.33,4.77
				c2.4-3.08,5.53-4.71,9.09-4.71c3.24,0,6.26,1.33,7.77,2.22C25-1.67,32.73-0.27,36.52,4.8c7.11,8.25,2.15,15.32-4.29,21.7
				l-10.01,9.41C21.6,36.53,20.74,36.88,19.86,36.88z M12.42,3.33c-2.57,0-4.7,1.13-6.5,3.45c-4.98,6.42-2.59,10.9,3.94,17.41
				l10,9.41c0,0,0.04,0,0.08-0.05l10.02-9.4c7.61-7.56,8.62-11.95,4-17.31c-3-4.03-9.19-4.9-12.6-1.4l-1.17,1.04l-0.97-0.85
				C19.18,5.61,16.03,3.33,12.42,3.33z"/>
		</defs>
		<clipPath id="SVGID_4_">
			<use xlink:href="#SVGID_2_"  style="overflow:visible;"/>
		</clipPath>
		<g class="st1">
			<g>
				<path id="SVGID_3_" class="st0" d="M95.94,2964.06h-2500.8V-3044H95.94V2964.06z M-2401.58,2960.78H92.66v-6001.5h-2494.24
					V2960.78z"/>
			</g>
			<g>
				<defs>
					<path id="SVGID_5_" d="M95.94,2964.06h-2500.8V-3044H95.94V2964.06z M-2401.58,2960.78H92.66v-6001.5h-2494.24V2960.78z"/>
				</defs>
				<clipPath id="SVGID_6_">
					<use xlink:href="#SVGID_5_"  style="overflow:visible;"/>
				</clipPath>
				<path class="st2" d="M52.2,49.08h-64.42v-61.42H52.2V49.08z M-8.94,45.8h57.86V-9.07H-8.94C-8.94-9.07-8.94,45.8-8.94,45.8z"/>
			</g>
		</g>
	</g>
</g>
</svg>
