<?xml version="1.0" encoding="utf-8"?>
<!-- Generator: Adobe Illustrator 16.0.0, SVG Export Plug-In . SVG Version: 6.00 Build 0)  -->
<!DOCTYPE svg PUBLIC "-//W3C//DTD SVG 1.1//EN" "http://www.w3.org/Graphics/SVG/1.1/DTD/svg11.dtd">
<svg version="1.1" id="Layer_1" xmlns="http://www.w3.org/2000/svg" xmlns:xlink="http://www.w3.org/1999/xlink" x="0px" y="0px"
	 width="21.626px" height="21.627px" viewBox="0 0 21.626 21.627" enable-background="new 0 0 21.626 21.627" xml:space="preserve">
<g id="XMLID_12_">
	<path id="XMLID_22_" d="M10.812,21.627C4.851,21.627,0,16.775,0,10.813S4.851,0,10.812,0c5.963,0,10.813,4.852,10.813,10.813
		S16.775,21.627,10.812,21.627z M10.812,0.928c-5.451,0-9.886,4.436-9.886,9.886c0,5.451,4.435,9.886,9.886,9.886
		c5.453,0,9.887-4.435,9.887-9.886C20.699,5.363,16.266,0.928,10.812,0.928z"/>
	<g id="XMLID_13_">
		<path id="XMLID_17_" d="M10.812,13.59c-2.202,0-3.994-1.791-3.994-3.994s1.792-3.994,3.994-3.994c2.203,0,3.995,1.791,3.995,3.994
			S13.016,13.59,10.812,13.59z M10.812,6.528c-1.691,0-3.066,1.376-3.066,3.067s1.375,3.068,3.066,3.068
			c1.692,0,3.068-1.377,3.068-3.068S12.505,6.528,10.812,6.528z"/>
		<path id="XMLID_14_" d="M10.812,21.627c-2.507,0-4.95-0.878-6.881-2.471c-0.133-0.111-0.193-0.285-0.158-0.454
			c0.696-3.308,3.656-5.708,7.039-5.708c3.384,0,6.344,2.4,7.04,5.708c0.036,0.169-0.026,0.343-0.158,0.454
			C15.765,20.749,13.32,21.627,10.812,21.627z M4.745,18.619c1.728,1.344,3.872,2.08,6.067,2.08c2.197,0,4.341-0.736,6.068-2.08
			c-0.707-2.738-3.215-4.697-6.068-4.697C7.96,13.922,5.452,15.881,4.745,18.619z"/>
	</g>
</g>
</svg>
