<?xml version="1.0" encoding="utf-8"?>
<!-- Generator: Adobe Illustrator 25.0.0, SVG Export Plug-In . SVG Version: 6.00 Build 0)  -->
<svg version="1.1" id="Layer_1" xmlns="http://www.w3.org/2000/svg" xmlns:xlink="http://www.w3.org/1999/xlink" x="0px" y="0px"
	 viewBox="0 0 200.12 88.14" style="enable-background:new 0 0 200.12 88.14;" xml:space="preserve">
<style type="text/css">
	.st0{fill:#DC166C;}
	.st1{fill:url(#SVGID_1_);}
	.st2{fill:#665B8A;}
</style>
<g>
	<g>
		<path class="st0" d="M74.02,36.97c2.31,1.36,4.14,3.18,5.48,5.47c1.34,2.29,2.01,4.8,2.01,7.51c0,2.72-0.67,5.23-2.01,7.54
			c-1.34,2.31-3.16,4.14-5.48,5.48c-2.31,1.34-4.83,2.01-7.54,2.01c-2.72,0-5.22-0.67-7.51-2.01c-2.29-1.34-4.11-3.16-5.44-5.48
			c-1.34-2.31-2.01-4.83-2.01-7.54c0-2.72,0.67-5.22,2.01-7.51c1.34-2.29,3.15-4.12,5.44-5.47c2.29-1.36,4.8-2.04,7.51-2.04
			C69.19,34.93,71.7,35.61,74.02,36.97z M61.97,42.17c-1.38,0.81-2.47,1.91-3.29,3.28c-0.81,1.38-1.22,2.88-1.22,4.5
			c0,1.62,0.4,3.13,1.22,4.53c0.81,1.4,1.91,2.5,3.29,3.32c1.38,0.81,2.88,1.22,4.5,1.22c1.62,0,3.13-0.4,4.53-1.22
			s2.5-1.92,3.32-3.32c0.81-1.4,1.22-2.91,1.22-4.53c0-1.62-0.4-3.12-1.22-4.5c-0.81-1.38-1.92-2.47-3.32-3.28
			c-1.4-0.81-2.91-1.22-4.53-1.22C64.85,40.95,63.35,41.36,61.97,42.17z"/>
		<path class="st0" d="M112.89,63.89c0,0.28-0.1,0.54-0.3,0.76c-0.2,0.22-0.45,0.33-0.73,0.33h-3.41c-0.28,0-0.54-0.11-0.76-0.33
			c-0.22-0.22-0.34-0.48-0.34-0.76l-0.24-16.18c0-2.23-0.67-3.97-2.01-5.23c-1.34-1.26-2.92-1.89-4.75-1.89s-3.42,0.63-4.77,1.89
			c-1.36,1.26-2.04,3-2.04,5.23l-0.18,16.18c0,0.28-0.1,0.54-0.3,0.76c-0.2,0.22-0.47,0.33-0.79,0.33h-3.41
			c-0.28,0-0.54-0.11-0.76-0.33c-0.22-0.22-0.33-0.48-0.33-0.76l-0.18-16.85l0.06-10.46c0-0.32,0.11-0.59,0.33-0.79
			c0.22-0.2,0.48-0.3,0.76-0.3h3.65c0.28,0,0.53,0.1,0.73,0.3c0.2,0.2,0.32,0.45,0.36,0.73v1.58c1.54-2.11,3.83-3.16,6.87-3.16
			c2.76,0,5.1,0.6,7.03,1.79c1.93,1.2,3.37,2.77,4.32,4.71c0.95,1.95,1.43,4.04,1.43,6.27L112.89,63.89z"/>
		<path class="st0" d="M149.14,30.67c0.08,4.34,0.12,8.42,0.12,12.23c0,3.85-0.04,6.45-0.12,7.79c-0.12,2.64-0.86,5.04-2.22,7.21
			c-1.36,2.17-3.16,3.89-5.41,5.17c-2.25,1.28-4.69,1.92-7.33,1.92c-2.72,0-5.22-0.67-7.51-2.01c-2.29-1.34-4.11-3.16-5.45-5.48
			c-1.34-2.31-2.01-4.83-2.01-7.54c0-2.72,0.67-5.22,2.01-7.51c1.34-2.29,3.15-4.12,5.45-5.47c2.29-1.36,4.79-2.04,7.51-2.04
			c1.58,0,3.21,0.38,4.9,1.13c1.68,0.75,2.95,1.69,3.8,2.83c0.08,0.08,0.16,0.1,0.24,0.06c0.08-0.04,0.12-0.1,0.12-0.18l0.06-16.55
			c0-0.32,0.12-0.61,0.36-0.85c0.24-0.24,0.53-0.36,0.85-0.36h3.22c0.32,0,0.61,0.12,0.85,0.36c0.24,0.24,0.36,0.53,0.36,0.85
			C149,23.51,149.06,26.33,149.14,30.67z M141.9,45.48c-0.81-1.36-1.9-2.44-3.25-3.25c-1.36-0.81-2.85-1.22-4.47-1.22
			s-3.11,0.41-4.47,1.22c-1.36,0.81-2.44,1.9-3.25,3.25c-0.81,1.36-1.22,2.85-1.22,4.47c0,1.62,0.4,3.12,1.22,4.5
			c0.81,1.38,1.91,2.46,3.29,3.26c1.38,0.79,2.86,1.19,4.44,1.19c1.62,0,3.11-0.4,4.47-1.22c1.36-0.81,2.44-1.9,3.25-3.26
			c0.81-1.36,1.22-2.85,1.22-4.47C143.12,48.33,142.71,46.84,141.9,45.48z"/>
		<path class="st0" d="M162.1,19.6c0.2,0.2,0.3,0.45,0.3,0.73l0.18,9.73v24.09l-0.18,9.79c0,0.28-0.1,0.53-0.3,0.73
			c-0.2,0.2-0.45,0.3-0.73,0.3h-3.59c-0.28,0-0.53-0.1-0.73-0.3c-0.2-0.2-0.3-0.45-0.3-0.73l-0.18-9.79V30.06l0.18-9.73
			c0-0.28,0.1-0.53,0.3-0.73c0.2-0.2,0.45-0.3,0.73-0.3h3.59C161.65,19.3,161.9,19.4,162.1,19.6z"/>
		<path class="st0" d="M174.63,81.22c-0.24-0.36-0.28-0.75-0.12-1.16l5.41-15.09l-11.19-27.37c-0.04-0.08-0.06-0.2-0.06-0.36
			c0-0.32,0.1-0.59,0.3-0.79c0.2-0.2,0.45-0.3,0.73-0.3h3.77c0.45,0,0.77,0.22,0.97,0.67l8.76,20.01l8.7-20.01
			c0.2-0.45,0.55-0.67,1.03-0.67h3.71c0.36,0,0.65,0.15,0.85,0.46c0.2,0.3,0.24,0.64,0.12,1l-17.34,43.37
			c-0.08,0.24-0.23,0.44-0.46,0.58c-0.22,0.14-0.48,0.21-0.76,0.21h-3.41C175.22,81.77,174.87,81.59,174.63,81.22z"/>
	</g>
	
		<linearGradient id="SVGID_1_" gradientUnits="userSpaceOnUse" x1="49.8054" y1="32.5001" x2="6.1637" y2="32.5001" gradientTransform="matrix(1 -1.652848e-03 1.652848e-03 1 -2.191 3.4821)">
		<stop  offset="0" style="stop-color:#DC166C"/>
		<stop  offset="0.1468" style="stop-color:#C22573"/>
		<stop  offset="0.406" style="stop-color:#9A3C7D"/>
		<stop  offset="0.6435" style="stop-color:#7E4D84"/>
		<stop  offset="0.8493" style="stop-color:#6C5788"/>
		<stop  offset="1" style="stop-color:#665B8A"/>
	</linearGradient>
	<path class="st1" d="M16.9,68.47c-1.59,0-2.91-1.27-2.95-2.87c-0.12-3.99,0.08-7.63,0.58-10.91c-3.4,2.04-6.33,3.05-6.57,3.13
		c-1.55,0.52-3.22-0.31-3.75-1.85c-0.52-1.55,0.31-3.22,1.85-3.75l0,0c0.06-0.02,3.39-1.18,6.75-3.43
		c-3.27-7.41-4.67-15.33-5.25-19.86c-0.8-6.29,0.19-12.43,2.77-17.27c2.45-4.6,6.18-7.65,9.96-8.16c4.2-0.56,9.12,1.9,10.35,10.51
		c0.93,6.53,0.01,13.84-2.74,21.83c2.09-0.55,4.35-0.67,6.73-0.34c8.63,1.27,13.37,7.23,13.04,16.36l-0.01,0.14
		c-0.41,4.78-2.7,8.76-6.45,11.2c-4.07,2.65-9.31,3.17-14.38,1.43l-0.3-0.12c-2.51-1.18-4.7-2.82-6.6-4.76
		c-0.11,1.79-0.14,3.68-0.08,5.67c0.05,1.63-1.24,2.99-2.87,3.04C16.96,68.47,16.93,68.47,16.9,68.47z M28.91,59.1
		c3.29,1.09,6.59,0.78,9.08-0.84c2.21-1.44,3.51-3.75,3.78-6.68c0.2-6.06-2.41-9.4-7.96-10.22c-3.25-0.44-6.02,0.32-8.17,2.25
		c-2,1.8-3.51,4.6-4.49,8.24C23.19,54.95,25.74,57.57,28.91,59.1z M21.38,9.34c-0.1,0-0.2,0.01-0.3,0.02
		c-3.45,0.46-9.11,7.34-7.66,18.83c0.39,3.06,1.47,9.83,4.04,16.39c0.48-0.63,0.91-1.31,1.25-2.02c5.13-10.6,7.17-19.93,6.07-27.72
		C24.6,13.52,23.81,9.34,21.38,9.34z"/>
	<g>
		<g>
			<path class="st2" d="M15.2,82.25c-0.97,0-1.5,0-1.59-0.01s-0.13-0.02-0.13-0.04v-0.04c0-0.02,0.03-0.18,0.11-0.46
				c0.2-0.84,0.52-2.03,0.96-3.58c0.19-0.7,0.31-1.12,0.37-1.26h1.74c0,0.02-0.04,0.16-0.13,0.41l-0.11,0.41h0.02
				c0.04,0,0.14-0.05,0.32-0.16c0.63-0.33,1.2-0.5,1.72-0.5c0.08,0,0.14,0,0.16,0.01c0.02,0.01,0.04,0.03,0.04,0.08
				c0,0.06-0.02,0.18-0.06,0.36c-0.04,0.18-0.08,0.27-0.12,0.28c-0.03,0.01-0.07,0.02-0.11,0.02c-0.18,0-0.44,0.14-0.79,0.43
				c-0.35,0.28-0.7,0.62-1.05,1.02c-0.35,0.4-0.62,0.78-0.83,1.14c-0.08,0.15-0.19,0.5-0.32,1.05L15.2,82.25z"/>
			<path class="st2" d="M20.32,82.71c-0.71,0-1.31-0.17-1.8-0.52c-0.49-0.35-0.74-0.83-0.74-1.44c0-0.51,0.14-1.02,0.41-1.53
				c0.27-0.51,0.57-0.93,0.91-1.28c0.36-0.4,0.82-0.75,1.36-1.06c0.54-0.3,1.09-0.45,1.66-0.45c0.39,0,0.77,0.1,1.13,0.3
				c0.28,0.18,0.43,0.38,0.43,0.6c0,0.34-0.2,0.71-0.59,1.09c-0.4,0.38-0.81,0.73-1.25,1.03c-0.44,0.3-0.75,0.49-0.95,0.56
				c-0.19,0.07-0.4,0.14-0.61,0.19c-0.26,0.06-0.47,0.09-0.64,0.09c-0.01,0-0.02,0.09-0.02,0.27c0,0.15,0.02,0.34,0.07,0.57
				c0.05,0.22,0.14,0.42,0.28,0.59c0.14,0.17,0.35,0.26,0.65,0.26l0.27-0.04c0.77-0.21,1.6-0.75,2.48-1.61
				c0.37-0.35,0.63-0.66,0.78-0.92c0.05-0.11,0.09-0.16,0.14-0.16c0.07,0,0.25,0.15,0.53,0.44l0.48,0.48
				c-0.9,0.96-1.9,1.67-3.01,2.15l-0.16,0.05C21.47,82.6,20.88,82.71,20.32,82.71z M19.9,79.5c0.03,0,0.12-0.03,0.25-0.11
				c0.45-0.25,0.85-0.59,1.21-1.03c0.32-0.39,0.48-0.72,0.48-0.98c0-0.09-0.01-0.14-0.04-0.14L21.7,77.3
				c-0.26,0.15-0.54,0.38-0.83,0.67c-0.37,0.37-0.66,0.76-0.87,1.19c-0.08,0.17-0.12,0.28-0.12,0.34H19.9z"/>
			<path class="st2" d="M25.59,83.23c-0.65,0-1.2-0.18-1.65-0.55c-0.4-0.38-0.6-0.89-0.6-1.54c0-0.34,0.05-0.67,0.14-0.99
				c0.38-1.3,1.09-2.38,2.13-3.23c1.02-0.9,1.97-1.35,2.87-1.35c0.3,0,0.59,0.06,0.89,0.18c0.38,0.18,0.57,0.5,0.57,0.96
				c0,0.24-0.04,0.47-0.11,0.71c-0.08,0.24-0.22,0.57-0.43,1.01c-0.6,0-1.01,0.01-1.22,0.02l-0.37,0.02c-0.09,0-0.15-0.01-0.16-0.02
				l0.04-0.05c0.13-0.24,0.24-0.48,0.34-0.73c0.11-0.33,0.16-0.63,0.16-0.9c0-0.2-0.02-0.3-0.05-0.3c-0.05,0-0.19,0.09-0.43,0.28
				c-0.24,0.19-0.48,0.4-0.72,0.64c-0.79,0.77-1.35,1.68-1.67,2.73c-0.09,0.32-0.14,0.69-0.14,1.1c0,0.85,0.28,1.28,0.83,1.28
				c0.35-0.01,0.7-0.12,1.05-0.32c0.66-0.37,1.43-0.93,2.31-1.69c0.59-0.5,1.11-0.99,1.54-1.49c0.3,0.31,0.6,0.61,0.91,0.91
				l-0.37,0.35c-0.52,0.48-1.12,0.98-1.79,1.47c-0.77,0.58-1.61,1.01-2.54,1.3C26.61,83.15,26.11,83.23,25.59,83.23z"/>
			<path class="st2" d="M31.74,82.64c-0.26,0-0.5-0.02-0.71-0.07c-0.62-0.15-1.01-0.47-1.19-0.94c-0.13-0.34-0.19-0.72-0.19-1.12
				c0-0.32,0.07-0.68,0.21-1.08c0.35-1.05,0.85-1.8,1.49-2.23c0.64-0.44,1.21-0.66,1.7-0.66c0.14,0,0.28,0.02,0.42,0.05
				c0.14,0.04,0.24,0.05,0.31,0.05l0.13,0.04c0.25,0.07,0.44,0.15,0.58,0.23c0.39,0.24,0.67,0.63,0.83,1.17
				c0.06,0.21,0.09,0.44,0.09,0.69c0,0.8-0.29,1.63-0.87,2.48c-0.52,0.69-1.25,1.13-2.2,1.33C32.17,82.62,31.97,82.64,31.74,82.64z
				 M31.99,81.9c0.05,0,0.13-0.04,0.23-0.12l0.09-0.05c0.2-0.15,0.4-0.37,0.59-0.66c0.19-0.28,0.35-0.58,0.45-0.89
				c0.17-0.45,0.25-0.86,0.25-1.24c0-0.48-0.12-0.91-0.37-1.28c-0.14-0.19-0.24-0.28-0.28-0.28c-0.05,0-0.21,0.16-0.5,0.48
				c-0.19,0.23-0.39,0.55-0.59,0.98c-0.26,0.58-0.39,1.13-0.39,1.67c0,0.56,0.12,0.98,0.35,1.26C31.9,81.85,31.96,81.9,31.99,81.9z"
				/>
			<path class="st2" d="M37.15,82.13h-1.33c-0.21,0-0.33-0.01-0.36-0.02c-0.03-0.01-0.05-0.03-0.05-0.05l0.14-0.55
				c0.22-0.92,0.55-2.14,0.97-3.65c0.19-0.69,0.3-1.04,0.32-1.06c0.02-0.02,0.09-0.04,0.19-0.04c0.1-0.01,0.33-0.01,0.7-0.01
				c0.57,0,0.85,0.01,0.85,0.04l-0.19,0.69c-0.11,0.38-0.16,0.6-0.16,0.66v0.02c0.04,0,0.11-0.05,0.22-0.14
				c0.11-0.09,0.27-0.2,0.49-0.32c0.53-0.31,0.99-0.46,1.37-0.46c0.12,0,0.24,0.02,0.37,0.05c0.44,0.11,0.7,0.22,0.78,0.34
				c0.08,0.08,0.12,0.14,0.12,0.17s0.02,0.1,0.05,0.2l0.02,0.16c0,0.24-0.06,0.62-0.19,1.15c-0.1,0.39-0.14,0.73-0.14,1.03
				c0,0.22,0.03,0.4,0.08,0.53c0.05,0.13,0.09,0.2,0.1,0.2c0.06,0,0.25-0.12,0.56-0.35c0.31-0.23,0.66-0.51,1.04-0.83
				c0.38-0.32,0.58-0.5,0.61-0.51c0.03-0.02,0.06-0.03,0.1-0.03c0.05,0,0.22,0.08,0.51,0.25c0.34,0.19,0.51,0.3,0.51,0.32
				c0,0.03-0.11,0.15-0.35,0.35c-0.23,0.19-0.48,0.4-0.76,0.61c-0.28,0.21-0.5,0.37-0.68,0.48c-0.3,0.18-0.62,0.32-0.97,0.43
				c-0.35,0.11-0.64,0.17-0.86,0.17c-1.16,0-1.74-0.5-1.74-1.49c0-0.33,0.06-0.74,0.18-1.22c0.03-0.17,0.06-0.31,0.09-0.43
				c0.02-0.12,0.03-0.22,0.03-0.28c0-0.05-0.01-0.07-0.02-0.07c-0.01,0-0.04,0.02-0.09,0.05c-0.37,0.3-0.82,0.77-1.35,1.42
				c-0.41,0.52-0.7,0.93-0.87,1.24c-0.12,0.27-0.21,0.55-0.27,0.83L37.15,82.13z"/>
			<path class="st2" d="M45.1,82.64c-0.26,0-0.5-0.02-0.71-0.07c-0.62-0.15-1.01-0.47-1.19-0.94c-0.13-0.34-0.19-0.72-0.19-1.12
				c0-0.32,0.07-0.68,0.21-1.08c0.35-1.05,0.85-1.8,1.49-2.23c0.64-0.44,1.21-0.66,1.7-0.66c0.14,0,0.28,0.02,0.42,0.05
				c0.14,0.04,0.24,0.05,0.31,0.05l0.13,0.04c0.25,0.07,0.44,0.15,0.58,0.23c0.39,0.24,0.67,0.63,0.83,1.17
				c0.06,0.21,0.09,0.44,0.09,0.69c0,0.8-0.29,1.63-0.87,2.48c-0.52,0.69-1.25,1.13-2.2,1.33C45.52,82.62,45.32,82.64,45.1,82.64z
				 M45.35,81.9c0.05,0,0.13-0.04,0.23-0.12l0.09-0.05c0.2-0.15,0.4-0.37,0.59-0.66c0.19-0.28,0.35-0.58,0.45-0.89
				c0.17-0.45,0.25-0.86,0.25-1.24c0-0.48-0.12-0.91-0.37-1.28c-0.14-0.19-0.24-0.28-0.28-0.28s-0.21,0.16-0.5,0.48
				c-0.19,0.23-0.39,0.55-0.59,0.98c-0.26,0.58-0.39,1.13-0.39,1.67c0,0.56,0.12,0.98,0.35,1.26C45.26,81.85,45.31,81.9,45.35,81.9z
				"/>
			<path class="st2" d="M51.02,83.23c-0.65,0-1.2-0.18-1.65-0.55c-0.4-0.38-0.6-0.89-0.6-1.54c0-0.34,0.05-0.67,0.14-0.99
				c0.38-1.3,1.09-2.38,2.13-3.23c1.02-0.9,1.97-1.35,2.87-1.35c0.3,0,0.59,0.06,0.89,0.18c0.38,0.18,0.57,0.5,0.57,0.96
				c0,0.24-0.04,0.47-0.11,0.71c-0.08,0.24-0.22,0.57-0.43,1.01c-0.6,0-1.01,0.01-1.22,0.02l-0.37,0.02c-0.09,0-0.15-0.01-0.16-0.02
				l0.04-0.05c0.13-0.24,0.24-0.48,0.34-0.73c0.11-0.33,0.16-0.63,0.16-0.9c0-0.2-0.02-0.3-0.05-0.3c-0.05,0-0.19,0.09-0.43,0.28
				c-0.24,0.19-0.48,0.4-0.72,0.64c-0.79,0.77-1.35,1.68-1.67,2.73c-0.09,0.32-0.14,0.69-0.14,1.1c0,0.85,0.28,1.28,0.83,1.28
				c0.35-0.01,0.7-0.12,1.05-0.32c0.66-0.37,1.43-0.93,2.31-1.69c0.59-0.5,1.11-0.99,1.54-1.49c0.3,0.31,0.6,0.61,0.91,0.91
				l-0.37,0.35c-0.52,0.48-1.12,0.98-1.79,1.47c-0.77,0.58-1.61,1.01-2.54,1.3C52.04,83.15,51.54,83.23,51.02,83.23z"/>
			<path class="st2" d="M56.89,82.92c-0.17,0-0.33-0.02-0.5-0.05c-0.41-0.11-0.71-0.25-0.89-0.43c-0.18-0.18-0.28-0.49-0.28-0.91
				c0-0.7,0.27-1.77,0.8-3.23c0.28-0.82,0.46-1.28,0.51-1.4c0.03-0.07,0.07-0.11,0.11-0.12c0.04-0.01,0.23-0.02,0.56-0.02
				c0.65,0,1,0.01,1.06,0.04c0,0.07-0.11,0.41-0.32,1.01c-0.45,1.36-0.73,2.32-0.83,2.87c-0.05,0.26-0.07,0.5-0.07,0.71
				s0.02,0.38,0.07,0.51l0.09,0.2l0.39-0.18c0.3-0.17,0.77-0.48,1.43-0.95c0.66-0.47,1.25-0.91,1.78-1.32
				c0.2-0.15,0.31-0.23,0.32-0.23c0.04,0,0.17,0.12,0.4,0.36c0.23,0.24,0.35,0.39,0.36,0.43c-0.12,0.11-0.57,0.44-1.35,1.01
				C58.98,82.36,57.77,82.92,56.89,82.92z M57.69,75.88c-0.25,0-0.45,0-0.61,0s-0.24-0.01-0.26-0.02c0-0.06,0.08-0.33,0.25-0.82
				c0.17-0.48,0.27-0.74,0.3-0.76c0.03-0.02,0.6-0.04,1.68-0.04l-0.5,1.61L57.69,75.88z"/>
			<path class="st2" d="M62.53,82.71c-0.71,0-1.31-0.17-1.8-0.52C60.24,81.84,60,81.36,60,80.74c0-0.51,0.14-1.02,0.41-1.53
				c0.27-0.51,0.57-0.93,0.91-1.28c0.36-0.4,0.82-0.75,1.36-1.06c0.54-0.3,1.09-0.45,1.66-0.45c0.39,0,0.77,0.1,1.13,0.3
				c0.28,0.18,0.43,0.38,0.43,0.6c0,0.34-0.2,0.71-0.59,1.09c-0.4,0.38-0.81,0.73-1.25,1.03c-0.44,0.3-0.75,0.49-0.95,0.56
				c-0.19,0.07-0.4,0.14-0.61,0.19c-0.26,0.06-0.47,0.09-0.64,0.09c-0.01,0-0.02,0.09-0.02,0.27c0,0.15,0.02,0.34,0.07,0.57
				c0.05,0.22,0.14,0.42,0.28,0.59c0.14,0.17,0.35,0.26,0.65,0.26l0.27-0.04c0.77-0.21,1.6-0.75,2.48-1.61
				c0.37-0.35,0.63-0.66,0.78-0.92c0.05-0.11,0.09-0.16,0.14-0.16c0.07,0,0.25,0.15,0.53,0.44l0.48,0.48
				c-0.9,0.96-1.9,1.67-3.01,2.15l-0.16,0.05C63.68,82.6,63.09,82.71,62.53,82.71z M62.11,79.5c0.03,0,0.12-0.03,0.25-0.11
				c0.45-0.25,0.85-0.59,1.21-1.03c0.32-0.39,0.48-0.72,0.48-0.98c0-0.09-0.01-0.14-0.04-0.14l-0.09,0.05
				c-0.26,0.15-0.54,0.38-0.83,0.67c-0.37,0.37-0.66,0.76-0.87,1.19c-0.08,0.17-0.12,0.28-0.12,0.34H62.11z"/>
			<path class="st2" d="M67.29,82.13h-1.33c-0.21,0-0.33-0.01-0.36-0.02c-0.03-0.01-0.05-0.03-0.05-0.05l0.14-0.55
				c0.22-0.92,0.55-2.14,0.97-3.65c0.19-0.69,0.3-1.04,0.32-1.06c0.02-0.02,0.09-0.04,0.19-0.04s0.33-0.01,0.7-0.01
				c0.57,0,0.85,0.01,0.85,0.04l-0.19,0.69c-0.11,0.38-0.16,0.6-0.16,0.66v0.02c0.04,0,0.11-0.05,0.22-0.14
				c0.11-0.09,0.27-0.2,0.49-0.32c0.53-0.31,0.99-0.46,1.37-0.46c0.12,0,0.24,0.02,0.37,0.05c0.44,0.11,0.7,0.22,0.78,0.34
				c0.08,0.08,0.12,0.14,0.12,0.17s0.02,0.1,0.05,0.2l0.02,0.16c0,0.24-0.06,0.62-0.19,1.15c-0.1,0.39-0.14,0.73-0.14,1.03
				c0,0.22,0.03,0.4,0.08,0.53c0.05,0.13,0.09,0.2,0.1,0.2c0.06,0,0.25-0.12,0.56-0.35c0.31-0.23,0.66-0.51,1.04-0.83
				c0.38-0.32,0.58-0.5,0.61-0.51c0.03-0.02,0.06-0.03,0.1-0.03c0.05,0,0.22,0.08,0.51,0.25c0.34,0.19,0.51,0.3,0.51,0.32
				c0,0.03-0.11,0.15-0.35,0.35c-0.23,0.19-0.48,0.4-0.76,0.61s-0.5,0.37-0.68,0.48c-0.3,0.18-0.62,0.32-0.97,0.43
				c-0.35,0.11-0.64,0.17-0.86,0.17c-1.16,0-1.74-0.5-1.74-1.49c0-0.33,0.06-0.74,0.18-1.22c0.03-0.17,0.06-0.31,0.09-0.43
				c0.02-0.12,0.03-0.22,0.03-0.28c0-0.05-0.01-0.07-0.02-0.07s-0.04,0.02-0.09,0.05c-0.37,0.3-0.82,0.77-1.35,1.42
				c-0.41,0.52-0.7,0.93-0.87,1.24c-0.12,0.27-0.21,0.55-0.27,0.83L67.29,82.13z"/>
			<path class="st2" d="M78.19,84.57h-1.45c-0.22-0.01-0.34-0.04-0.34-0.07c0-0.05,0.06-0.31,0.19-0.8
				c0.34-1.23,0.63-2.22,0.87-2.98c0.14-0.43,0.21-0.66,0.21-0.71c-0.01,0-0.14,0.15-0.37,0.44c-0.8,1.03-1.58,1.63-2.32,1.79
				c-0.19,0.05-0.38,0.07-0.57,0.07c-0.23,0-0.44-0.04-0.64-0.12c-0.2-0.08-0.36-0.23-0.47-0.44c-0.11-0.21-0.17-0.43-0.17-0.66
				l0.02-0.27c0.18-0.76,0.49-1.45,0.94-2.08c0.58-0.87,1.37-1.46,2.38-1.76c0.18-0.05,0.37-0.07,0.57-0.07
				c0.18,0,0.34,0.02,0.5,0.06c0.15,0.04,0.24,0.06,0.27,0.06c0.02,0,0.15-0.19,0.39-0.58c0.24-0.39,0.51-0.85,0.81-1.39
				c0.3-0.54,0.58-1.05,0.84-1.53c0.13-0.24,0.24-0.44,0.33-0.6c0.09-0.17,0.14-0.26,0.14-0.28c0.01-0.02,0.4-0.03,1.18-0.03
				c0.27,0,0.44,0,0.49,0c0.05,0,0.09,0,0.11,0.01c0.02,0.01,0.03,0.02,0.03,0.04c-0.05,0.14-0.18,0.47-0.39,0.98
				c-0.4,1.02-0.9,2.45-1.51,4.29c-0.69,2.05-1.3,4.03-1.83,5.94L78.19,84.57z M74.95,81.08c0.02,0,0.1-0.08,0.23-0.25
				c0.26-0.3,0.6-0.73,1.03-1.3c0.7-0.97,1.05-1.49,1.05-1.56c0-0.01-0.09-0.11-0.27-0.28l-0.18,0.12
				c-0.47,0.37-0.93,0.97-1.38,1.81c-0.11,0.24-0.21,0.48-0.3,0.73c-0.13,0.34-0.19,0.57-0.19,0.69L74.95,81.08z"/>
			<path class="st2" d="M82.43,82.64c-0.26,0-0.5-0.02-0.71-0.07c-0.62-0.15-1.01-0.47-1.19-0.94c-0.13-0.34-0.19-0.72-0.19-1.12
				c0-0.32,0.07-0.68,0.21-1.08c0.35-1.05,0.85-1.8,1.49-2.23c0.64-0.44,1.21-0.66,1.7-0.66c0.14,0,0.28,0.02,0.42,0.05
				c0.14,0.04,0.24,0.05,0.31,0.05l0.13,0.04c0.25,0.07,0.44,0.15,0.58,0.23c0.39,0.24,0.67,0.63,0.83,1.17
				c0.06,0.21,0.09,0.44,0.09,0.69c0,0.8-0.29,1.63-0.87,2.48c-0.52,0.69-1.25,1.13-2.2,1.33C82.86,82.62,82.65,82.64,82.43,82.64z
				 M82.68,81.9c0.05,0,0.13-0.04,0.23-0.12L83,81.72c0.2-0.15,0.4-0.37,0.59-0.66c0.19-0.28,0.35-0.58,0.45-0.89
				c0.17-0.45,0.25-0.86,0.25-1.24c0-0.48-0.12-0.91-0.37-1.28c-0.14-0.19-0.24-0.28-0.28-0.28s-0.21,0.16-0.5,0.48
				c-0.19,0.23-0.39,0.55-0.59,0.98c-0.26,0.58-0.39,1.13-0.39,1.67c0,0.56,0.12,0.98,0.35,1.26C82.59,81.85,82.64,81.9,82.68,81.9z
				"/>
			<path class="st2" d="M92.28,82.13h-1.33c-0.21,0-0.33-0.01-0.36-0.02c-0.03-0.01-0.05-0.03-0.05-0.05l0.14-0.55
				c0.22-0.92,0.55-2.14,0.97-3.65c0.19-0.69,0.3-1.04,0.32-1.06c0.02-0.02,0.09-0.04,0.19-0.04s0.33-0.01,0.7-0.01
				c0.57,0,0.85,0.01,0.85,0.04l-0.19,0.69c-0.11,0.38-0.16,0.6-0.16,0.66v0.02c0.04,0,0.11-0.05,0.22-0.14
				c0.11-0.09,0.27-0.2,0.49-0.32c0.53-0.31,0.99-0.46,1.37-0.46c0.12,0,0.24,0.02,0.37,0.05c0.44,0.11,0.7,0.22,0.78,0.34
				c0.08,0.08,0.12,0.14,0.12,0.17s0.02,0.1,0.05,0.2l0.02,0.16c0,0.24-0.06,0.62-0.19,1.15c-0.1,0.39-0.14,0.73-0.14,1.03
				c0,0.22,0.03,0.4,0.08,0.53c0.05,0.13,0.09,0.2,0.1,0.2c0.06,0,0.25-0.12,0.56-0.35c0.31-0.23,0.66-0.51,1.04-0.83
				c0.38-0.32,0.58-0.5,0.61-0.51c0.03-0.02,0.06-0.03,0.1-0.03c0.05,0,0.22,0.08,0.51,0.25c0.34,0.19,0.51,0.3,0.51,0.32
				c0,0.03-0.11,0.15-0.35,0.35c-0.23,0.19-0.48,0.4-0.76,0.61c-0.28,0.21-0.5,0.37-0.68,0.48c-0.3,0.18-0.62,0.32-0.97,0.43
				c-0.35,0.11-0.64,0.17-0.86,0.17c-1.16,0-1.74-0.5-1.74-1.49c0-0.33,0.06-0.74,0.18-1.22c0.03-0.17,0.06-0.31,0.09-0.43
				c0.02-0.12,0.03-0.22,0.03-0.28c0-0.05-0.01-0.07-0.02-0.07c-0.01,0-0.04,0.02-0.09,0.05c-0.37,0.3-0.82,0.77-1.35,1.42
				c-0.41,0.52-0.7,0.93-0.87,1.24c-0.12,0.27-0.21,0.55-0.27,0.83L92.28,82.13z"/>
			<path class="st2" d="M102.54,82.18h-0.8c0.01-0.15,0.03-0.29,0.07-0.41c0.08-0.28,0.15-0.5,0.21-0.64c0-0.01-0.01-0.02-0.02-0.02
				c-0.01,0-0.05,0.02-0.11,0.07c-0.26,0.21-0.48,0.37-0.66,0.48c-0.51,0.28-1.02,0.43-1.53,0.43c-0.34,0-0.66-0.07-0.96-0.21
				c-0.11-0.05-0.18-0.09-0.23-0.13c-0.05-0.04-0.09-0.11-0.13-0.2s-0.06-0.16-0.08-0.21c-0.02-0.05-0.03-0.13-0.03-0.22v-0.18
				c0-0.57,0.18-1.35,0.55-2.36c0.32-0.84,0.54-1.32,0.66-1.44c0-0.04,0.29-0.05,0.87-0.05c0.34,0,0.56,0.01,0.67,0.02
				c0.1,0.01,0.15,0.03,0.15,0.05c0,0.04-0.04,0.15-0.13,0.34c-0.2,0.46-0.38,0.95-0.55,1.45c-0.27,0.84-0.41,1.47-0.41,1.88
				c0,0.13,0.01,0.21,0.03,0.23c0.06,0,0.32-0.25,0.8-0.74c0.37-0.4,0.79-0.93,1.28-1.6c0.32-0.43,0.76-1.08,1.33-1.95h0.92
				l0.91,0.02l-0.09,0.28c-0.14,0.43-0.3,0.85-0.46,1.26l-0.41,1.15c-0.47,1.31-0.74,2.11-0.81,2.38c-0.05,0.17-0.1,0.26-0.17,0.28
				C103.37,82.17,103.08,82.18,102.54,82.18z"/>
			<path class="st2" d="M107.21,82.71c-0.71,0-1.31-0.17-1.8-0.52c-0.49-0.35-0.74-0.83-0.74-1.44c0-0.51,0.14-1.02,0.41-1.53
				c0.27-0.51,0.57-0.93,0.91-1.28c0.36-0.4,0.82-0.75,1.36-1.06c0.54-0.3,1.09-0.45,1.66-0.45c0.39,0,0.77,0.1,1.13,0.3
				c0.28,0.18,0.43,0.38,0.43,0.6c0,0.34-0.2,0.71-0.59,1.09c-0.4,0.38-0.81,0.73-1.25,1.03c-0.44,0.3-0.75,0.49-0.95,0.56
				c-0.19,0.07-0.4,0.14-0.61,0.19c-0.26,0.06-0.47,0.09-0.64,0.09c-0.01,0-0.02,0.09-0.02,0.27c0,0.15,0.02,0.34,0.07,0.57
				c0.05,0.22,0.14,0.42,0.28,0.59c0.14,0.17,0.35,0.26,0.65,0.26l0.27-0.04c0.77-0.21,1.6-0.75,2.48-1.61
				c0.37-0.35,0.63-0.66,0.78-0.92c0.05-0.11,0.09-0.16,0.14-0.16c0.07,0,0.25,0.15,0.53,0.44l0.48,0.48
				c-0.9,0.96-1.9,1.67-3.01,2.15L109,82.37C108.36,82.6,107.76,82.71,107.21,82.71z M106.78,79.5c0.03,0,0.12-0.03,0.25-0.11
				c0.45-0.25,0.85-0.59,1.21-1.03c0.32-0.39,0.48-0.72,0.48-0.98c0-0.09-0.01-0.14-0.04-0.14l-0.09,0.05
				c-0.26,0.15-0.54,0.38-0.83,0.67c-0.37,0.37-0.66,0.76-0.87,1.19c-0.08,0.17-0.12,0.28-0.12,0.34H106.78z"/>
			<path class="st2" d="M110.86,84.8c-0.13,0-0.25-0.01-0.35-0.02c-0.67-0.12-1.18-0.3-1.51-0.55c-0.13-0.12-0.19-0.25-0.19-0.41
				c0-0.15,0.06-0.33,0.19-0.53c0.25-0.4,0.99-0.92,2.22-1.56l0.81-0.43c-0.03-0.08-0.07-0.17-0.11-0.26
				c-0.03-0.09-0.12-0.27-0.27-0.54l-0.51-1.01c-0.14-0.32-0.21-0.61-0.21-0.87c0-0.76,0.56-1.38,1.68-1.88
				c0.4-0.18,0.76-0.27,1.07-0.27c0.13,0,0.32,0.02,0.57,0.07c0.25,0.05,0.47,0.11,0.66,0.19l-0.57,0.98
				c-0.05-0.05-0.1-0.1-0.17-0.16c-0.06-0.06-0.16-0.12-0.28-0.19c-0.12-0.07-0.22-0.1-0.27-0.1c-0.05,0-0.13,0.04-0.25,0.13
				c-0.12,0.09-0.21,0.18-0.28,0.27c-0.21,0.27-0.32,0.55-0.32,0.83c0,0.19,0.03,0.38,0.1,0.56c0.06,0.18,0.18,0.42,0.34,0.72
				c0.16,0.3,0.27,0.5,0.33,0.62c0.02,0.07,0.05,0.11,0.07,0.11l0.94-0.43c1.44-0.7,2.24-1.05,2.39-1.05c0.05,0,0.13,0.1,0.25,0.31
				c0.12,0.21,0.18,0.32,0.18,0.35c0,0.02-0.08,0.08-0.25,0.16c-0.4,0.18-0.95,0.44-1.65,0.78l-0.5,0.23
				c-0.69,0.32-1.03,0.49-1.03,0.51c0,0.05,0.01,0.12,0.03,0.23c0.07,0.37,0.11,0.66,0.11,0.87s-0.02,0.4-0.07,0.57
				c-0.31,0.8-1.08,1.36-2.32,1.67C111.42,84.78,111.15,84.8,110.86,84.8z M111.07,84.04c0.13,0,0.25-0.02,0.35-0.07
				c0.3-0.15,0.51-0.38,0.66-0.67c0.08-0.14,0.13-0.35,0.14-0.64l0.02-0.41c-1.05,0.56-1.58,1.03-1.58,1.42
				c0,0.09,0.04,0.18,0.11,0.26C110.85,84,110.94,84.04,111.07,84.04z"/>
			<path class="st2" d="M116.84,84.13h-1.33c-0.21,0-0.33-0.01-0.36-0.02c-0.03-0.01-0.05-0.03-0.05-0.05l0.05-0.19
				c0.05-0.24,0.27-1.07,0.67-2.5c0.68-2.54,1.18-4.32,1.47-5.34c0.07-0.26,0.11-0.41,0.11-0.44v-0.02h-1.44
				c0-0.03,0.06-0.26,0.18-0.67c0.01-0.04,0.05-0.06,0.12-0.06c0.07-0.01,0.27-0.01,0.6-0.01c0.47,0,0.73-0.01,0.77-0.04
				c0.04-0.03,0.18-0.43,0.42-1.22l1.37-0.02c0.19,0,0.3,0,0.33,0.01c0.03,0.01,0.04,0.02,0.04,0.04l-0.32,1.08
				c0,0.02,0.29,0.03,0.87,0.03l2.59-0.02c0.02,0.01,0.03,0.04,0.03,0.07c0,0.05-0.02,0.14-0.05,0.27c-0.06,0.2-0.1,0.32-0.13,0.36
				c-0.02,0.04-0.42,0.06-1.19,0.06c-1.04,0-1.74,0.01-2.11,0.04c-0.15,0.01-0.25,0.04-0.29,0.07c-0.04,0.04-0.62,2.09-1.75,6.17
				C117.2,82.68,116.99,83.48,116.84,84.13z"/>
			<path class="st2" d="M120.49,82.25c-0.97,0-1.5,0-1.59-0.01s-0.13-0.02-0.13-0.04v-0.04c0-0.02,0.04-0.18,0.11-0.46
				c0.2-0.84,0.52-2.03,0.96-3.58c0.19-0.7,0.31-1.12,0.37-1.26h1.74c0,0.02-0.04,0.16-0.12,0.41l-0.11,0.41h0.02
				c0.03,0,0.14-0.05,0.32-0.16c0.63-0.33,1.2-0.5,1.72-0.5c0.08,0,0.14,0,0.16,0.01c0.02,0.01,0.03,0.03,0.03,0.08
				c0,0.06-0.02,0.18-0.06,0.36s-0.08,0.27-0.11,0.28c-0.03,0.01-0.07,0.02-0.11,0.02c-0.18,0-0.44,0.14-0.79,0.43
				c-0.35,0.28-0.7,0.62-1.05,1.02s-0.62,0.78-0.82,1.14c-0.08,0.15-0.19,0.5-0.32,1.05L120.49,82.25z"/>
			<path class="st2" d="M125.17,82.64c-0.26,0-0.5-0.02-0.71-0.07c-0.62-0.15-1.01-0.47-1.19-0.94c-0.13-0.34-0.19-0.72-0.19-1.12
				c0-0.32,0.07-0.68,0.21-1.08c0.35-1.05,0.85-1.8,1.49-2.23c0.64-0.44,1.21-0.66,1.7-0.66c0.14,0,0.28,0.02,0.42,0.05
				c0.14,0.04,0.24,0.05,0.31,0.05l0.13,0.04c0.25,0.07,0.44,0.15,0.58,0.23c0.39,0.24,0.67,0.63,0.83,1.17
				c0.06,0.21,0.09,0.44,0.09,0.69c0,0.8-0.29,1.63-0.87,2.48c-0.52,0.69-1.25,1.13-2.2,1.33C125.6,82.62,125.4,82.64,125.17,82.64z
				 M125.42,81.9c0.05,0,0.13-0.04,0.23-0.12l0.09-0.05c0.2-0.15,0.4-0.37,0.59-0.66c0.19-0.28,0.35-0.58,0.45-0.89
				c0.17-0.45,0.25-0.86,0.25-1.24c0-0.48-0.12-0.91-0.37-1.28c-0.14-0.19-0.24-0.28-0.28-0.28c-0.05,0-0.21,0.16-0.5,0.48
				c-0.19,0.23-0.39,0.55-0.59,0.98c-0.26,0.58-0.39,1.13-0.39,1.67c0,0.56,0.12,0.98,0.35,1.26
				C125.33,81.85,125.39,81.9,125.42,81.9z"/>
			<path class="st2" d="M129.49,84.8c-0.13,0-0.25-0.01-0.35-0.02c-0.67-0.12-1.18-0.3-1.51-0.55c-0.13-0.12-0.19-0.25-0.19-0.41
				c0-0.15,0.06-0.33,0.19-0.53c0.25-0.4,0.99-0.92,2.22-1.56l0.81-0.43c-0.03-0.08-0.07-0.17-0.11-0.26
				c-0.03-0.09-0.12-0.27-0.27-0.54l-0.51-1.01c-0.14-0.32-0.21-0.61-0.21-0.87c0-0.76,0.56-1.38,1.68-1.88
				c0.4-0.18,0.76-0.27,1.07-0.27c0.13,0,0.32,0.02,0.57,0.07c0.25,0.05,0.47,0.11,0.66,0.19l-0.57,0.98
				c-0.05-0.05-0.1-0.1-0.17-0.16c-0.06-0.06-0.16-0.12-0.28-0.19c-0.12-0.07-0.22-0.1-0.27-0.1c-0.05,0-0.13,0.04-0.25,0.13
				s-0.21,0.18-0.28,0.27c-0.21,0.27-0.32,0.55-0.32,0.83c0,0.19,0.03,0.38,0.1,0.56c0.06,0.18,0.18,0.42,0.34,0.72
				c0.16,0.3,0.27,0.5,0.33,0.62c0.02,0.07,0.05,0.11,0.07,0.11l0.94-0.43c1.44-0.7,2.24-1.05,2.39-1.05c0.05,0,0.13,0.1,0.25,0.31
				c0.12,0.21,0.18,0.32,0.18,0.35c0,0.02-0.08,0.08-0.25,0.16c-0.4,0.18-0.95,0.44-1.65,0.78l-0.5,0.23
				c-0.69,0.32-1.03,0.49-1.03,0.51c0,0.05,0.01,0.12,0.03,0.23c0.07,0.37,0.11,0.66,0.11,0.87s-0.02,0.4-0.07,0.57
				c-0.31,0.8-1.08,1.36-2.32,1.67C130.04,84.78,129.77,84.8,129.49,84.8z M129.7,84.04c0.13,0,0.25-0.02,0.35-0.07
				c0.3-0.15,0.51-0.38,0.66-0.67c0.08-0.14,0.13-0.35,0.14-0.64l0.02-0.41c-1.05,0.56-1.58,1.03-1.58,1.42
				c0,0.09,0.04,0.18,0.11,0.26C129.47,84,129.57,84.04,129.7,84.04z"/>
			<path class="st2" d="M140.09,84.2c-0.31,0-0.63-0.08-0.96-0.23c-0.4-0.22-0.6-0.64-0.6-1.26c0-0.47,0.08-0.97,0.23-1.49V81.2
				c0.2-0.79,0.54-1.91,1.03-3.35c0.59-1.8,1.21-3.51,1.85-5.14c0.6-0.04,1.08-0.05,1.42-0.05c0.22,0,0.34,0.01,0.34,0.04
				l-0.14,0.39l-0.55,1.54c-0.47,1.32-0.92,2.63-1.35,3.9c-0.66,2.02-0.99,3.38-0.99,4.08c0,0.32,0.02,0.48,0.05,0.48
				c0.07,0,0.21-0.13,0.43-0.39c1.04-1.1,1.77-1.94,2.18-2.52l0.28-0.37c0.05,0,0.26,0.11,0.64,0.33c0.38,0.22,0.57,0.34,0.57,0.36
				c0,0.01-0.04,0.07-0.13,0.17c-0.08,0.1-0.18,0.22-0.28,0.36c-0.52,0.6-1.04,1.17-1.55,1.7c-0.51,0.53-0.9,0.89-1.15,1.06
				C141,84.07,140.56,84.2,140.09,84.2z"/>
			<path class="st2" d="M147.26,82.18c-0.53,0-0.8-0.02-0.8-0.05v-0.09c0-0.12,0.08-0.44,0.23-0.96c0.07-0.24,0.11-0.38,0.11-0.43
				l-0.28,0.2c-0.3,0.23-0.56,0.4-0.8,0.53c-0.42,0.23-0.85,0.34-1.29,0.34c-1.05,0-1.58-0.37-1.58-1.1c0-0.09,0.02-0.27,0.07-0.51
				c0.05-0.25,0.19-0.56,0.43-0.93c0.24-0.37,0.49-0.66,0.75-0.86c0.54-0.5,1.16-0.86,1.84-1.1c0.31-0.11,0.6-0.16,0.87-0.16
				c0.2,0,0.4,0.03,0.6,0.09l0.21,0.05l0.25-0.43h0.89c0.58,0,0.88,0.01,0.91,0.03c0,0.07-0.08,0.38-0.25,0.94l-0.46,1.54
				c-0.06,0.18-0.21,0.75-0.46,1.7c-0.15,0.72-0.27,1.1-0.35,1.14S147.78,82.18,147.26,82.18z M144.79,80.78l0.28-0.25
				c0.5-0.44,1.04-1.09,1.63-1.95c0.23-0.31,0.34-0.51,0.34-0.6c0-0.06-0.05-0.1-0.16-0.12l-0.11-0.02l-0.11,0.02
				c-0.73,0.33-1.28,0.94-1.65,1.83c-0.15,0.35-0.23,0.64-0.23,0.87V80.78z"/>
			<path class="st2" d="M151.58,83.01c-0.56,0-1.04-0.09-1.45-0.28c-0.2-0.08-0.35-0.16-0.44-0.23l-0.03-0.05
				c-0.11-0.14-0.16-0.28-0.16-0.41c0-0.31,0.18-0.7,0.53-1.19c0.27-0.34,0.72-0.8,1.33-1.37c0.77-0.73,1.59-1.44,2.46-2.13
				l-0.27-0.02l-3.35,0.12c-0.02,0-0.04,0-0.05,0c-0.01,0-0.02-0.01-0.02-0.02c0-0.03,0.02-0.15,0.07-0.34
				c0.06-0.24,0.12-0.36,0.18-0.37c0.12-0.02,0.75-0.06,1.9-0.11c1.43-0.05,2.36-0.09,2.8-0.12l0.53,0.92
				c-0.38,0.28-0.9,0.73-1.58,1.33c-0.58,0.52-1.08,0.99-1.49,1.4c-0.8,0.8-1.21,1.4-1.21,1.77c0,0.11,0.03,0.19,0.09,0.26
				c0.06,0.07,0.13,0.1,0.2,0.1c0.31,0,0.74-0.09,1.29-0.28c0.45-0.15,0.89-0.34,1.33-0.55c0.26-0.13,0.42-0.19,0.48-0.19
				c0.02,0,0.06,0.02,0.11,0.07c0.07,0.09,0.14,0.21,0.21,0.34l0.16,0.3c0,0.02-0.11,0.08-0.32,0.16c-1.02,0.43-1.85,0.7-2.48,0.82
				C152.15,82.99,151.88,83.01,151.58,83.01z"/>
			<path class="st2" d="M157.7,82.64c-0.26,0-0.5-0.02-0.71-0.07c-0.61-0.15-1.01-0.47-1.19-0.94c-0.13-0.34-0.2-0.72-0.2-1.12
				c0-0.32,0.07-0.68,0.21-1.08c0.35-1.05,0.85-1.8,1.49-2.23c0.64-0.44,1.21-0.66,1.7-0.66c0.14,0,0.28,0.02,0.42,0.05
				c0.14,0.04,0.24,0.05,0.31,0.05l0.12,0.04c0.25,0.07,0.44,0.15,0.59,0.23c0.39,0.24,0.67,0.63,0.83,1.17
				c0.06,0.21,0.09,0.44,0.09,0.69c0,0.8-0.29,1.63-0.87,2.48c-0.52,0.69-1.25,1.13-2.2,1.33C158.13,82.62,157.93,82.64,157.7,82.64
				z M157.95,81.9c0.05,0,0.12-0.04,0.23-0.12l0.09-0.05c0.2-0.15,0.4-0.37,0.59-0.66c0.2-0.28,0.35-0.58,0.45-0.89
				c0.17-0.45,0.25-0.86,0.25-1.24c0-0.48-0.13-0.91-0.37-1.28c-0.14-0.19-0.24-0.28-0.28-0.28c-0.05,0-0.21,0.16-0.5,0.48
				c-0.19,0.23-0.38,0.55-0.59,0.98c-0.26,0.58-0.39,1.13-0.39,1.67c0,0.56,0.12,0.98,0.35,1.26
				C157.86,81.85,157.92,81.9,157.95,81.9z"/>
			<path class="st2" d="M162.01,84.8c-0.13,0-0.25-0.01-0.35-0.02c-0.67-0.12-1.18-0.3-1.51-0.55c-0.13-0.12-0.19-0.25-0.19-0.41
				c0-0.15,0.07-0.33,0.19-0.53c0.25-0.4,0.99-0.92,2.22-1.56l0.82-0.43c-0.04-0.08-0.07-0.17-0.11-0.26
				c-0.04-0.09-0.13-0.27-0.27-0.54l-0.51-1.01c-0.14-0.32-0.21-0.61-0.21-0.87c0-0.76,0.56-1.38,1.69-1.88
				c0.4-0.18,0.76-0.27,1.06-0.27c0.13,0,0.32,0.02,0.57,0.07c0.25,0.05,0.47,0.11,0.66,0.19l-0.57,0.98
				c-0.05-0.05-0.1-0.1-0.17-0.16c-0.07-0.06-0.16-0.12-0.28-0.19c-0.13-0.07-0.22-0.1-0.28-0.1c-0.05,0-0.13,0.04-0.25,0.13
				s-0.21,0.18-0.28,0.27c-0.21,0.27-0.32,0.55-0.32,0.83c0,0.19,0.03,0.38,0.1,0.56c0.06,0.18,0.18,0.42,0.34,0.72
				c0.16,0.3,0.27,0.5,0.33,0.62c0.02,0.07,0.05,0.11,0.07,0.11l0.94-0.43c1.44-0.7,2.24-1.05,2.39-1.05c0.05,0,0.13,0.1,0.25,0.31
				c0.12,0.21,0.18,0.32,0.18,0.35c0,0.02-0.08,0.08-0.25,0.16c-0.4,0.18-0.95,0.44-1.65,0.78l-0.5,0.23
				c-0.69,0.32-1.03,0.49-1.03,0.51c0,0.05,0.01,0.12,0.04,0.23c0.07,0.37,0.11,0.66,0.11,0.87s-0.02,0.4-0.07,0.57
				c-0.31,0.8-1.08,1.36-2.32,1.67C162.57,84.78,162.3,84.8,162.01,84.8z M162.23,84.04c0.13,0,0.25-0.02,0.35-0.07
				c0.3-0.15,0.51-0.38,0.66-0.67c0.08-0.14,0.13-0.35,0.14-0.64l0.02-0.41c-1.05,0.56-1.58,1.03-1.58,1.42
				c0,0.09,0.03,0.18,0.11,0.26C162,84,162.1,84.04,162.23,84.04z"/>
		</g>
	</g>
</g>
</svg>
