<?xml version="1.0" encoding="utf-8"?>
<!-- Generator: Adobe Illustrator 25.0.0, SVG Export Plug-In . SVG Version: 6.00 Build 0)  -->
<svg version="1.1" xmlns="http://www.w3.org/2000/svg" xmlns:xlink="http://www.w3.org/1999/xlink" x="0px" y="0px"
	 viewBox="0 0 208.75 93.73" style="enable-background:new 0 0 208.75 93.73;" xml:space="preserve">
<style type="text/css">
	.st0{display:none;}
	.st1{display:inline;}
	.st2{fill:#DD156C;}
	.st3{fill:url(#SVGID_1_);}
	.st4{fill:#655B8B;}
	.st5{fill:#026C69;}
	.st6{fill:url(#SVGID_2_);}
	.st7{fill:none;}
	.st8{font-family:'HummerMillerDemo';}
	.st9{font-size:18.784px;}
</style>
<g id="Layer_1" class="st0">
	<g class="st1">
		<g>
			<path class="st2" d="M75.42,38.73c2.44,1.44,4.37,3.36,5.78,5.78c1.41,2.42,2.12,5.07,2.12,7.93c0,2.87-0.71,5.53-2.12,7.97
				c-1.41,2.44-3.34,4.37-5.78,5.78c-2.44,1.41-5.1,2.12-7.97,2.12c-2.87,0-5.52-0.71-7.93-2.12c-2.42-1.41-4.34-3.34-5.75-5.78
				c-1.41-2.44-2.12-5.1-2.12-7.97c0-2.87,0.71-5.51,2.12-7.93c1.41-2.42,3.33-4.35,5.75-5.78c2.42-1.44,5.06-2.15,7.93-2.15
				C70.32,36.58,72.98,37.3,75.42,38.73z M62.7,44.23c-1.46,0.86-2.61,2.01-3.47,3.47c-0.86,1.46-1.28,3.04-1.28,4.75
				c0,1.71,0.43,3.31,1.28,4.79c0.86,1.48,2.01,2.65,3.47,3.5c1.46,0.86,3.04,1.28,4.75,1.28c1.71,0,3.31-0.43,4.79-1.28
				c1.48-0.86,2.64-2.02,3.5-3.5c0.86-1.48,1.28-3.07,1.28-4.79c0-1.71-0.43-3.3-1.28-4.75c-0.86-1.46-2.02-2.61-3.5-3.47
				c-1.48-0.86-3.07-1.28-4.79-1.28C65.74,42.94,64.16,43.37,62.7,44.23z"/>
			<path class="st2" d="M116.47,67.16c0,0.3-0.11,0.57-0.32,0.8c-0.21,0.24-0.47,0.35-0.77,0.35h-3.6c-0.3,0-0.57-0.12-0.8-0.35
				c-0.24-0.23-0.35-0.5-0.35-0.8l-0.26-17.09c0-2.36-0.71-4.2-2.12-5.53c-1.41-1.33-3.08-1.99-5.01-1.99
				c-1.93,0-3.61,0.66-5.04,1.99c-1.44,1.33-2.15,3.17-2.15,5.53l-0.19,17.09c0,0.3-0.11,0.57-0.32,0.8
				c-0.21,0.24-0.49,0.35-0.83,0.35h-3.6c-0.3,0-0.57-0.12-0.8-0.35c-0.23-0.23-0.35-0.5-0.35-0.8l-0.19-17.8l0.06-11.05
				c0-0.34,0.12-0.62,0.35-0.83c0.23-0.21,0.5-0.32,0.8-0.32h3.86c0.3,0,0.56,0.11,0.77,0.32c0.21,0.21,0.34,0.47,0.39,0.77v1.67
				c1.63-2.23,4.05-3.34,7.26-3.34c2.91,0,5.39,0.63,7.42,1.89c2.03,1.26,3.55,2.92,4.56,4.98c1.01,2.06,1.51,4.26,1.51,6.62
				L116.47,67.16z"/>
			<path class="st2" d="M154.77,32.08c0.08,4.58,0.13,8.89,0.13,12.91c0,4.07-0.04,6.81-0.13,8.22c-0.13,2.78-0.91,5.32-2.35,7.61
				c-1.44,2.29-3.34,4.11-5.72,5.46c-2.38,1.35-4.96,2.02-7.74,2.02c-2.87,0-5.51-0.71-7.93-2.12c-2.42-1.41-4.34-3.34-5.75-5.78
				c-1.41-2.44-2.12-5.1-2.12-7.97c0-2.87,0.71-5.51,2.12-7.93c1.41-2.42,3.33-4.35,5.75-5.78c2.42-1.44,5.06-2.15,7.93-2.15
				c1.67,0,3.39,0.4,5.17,1.19c1.78,0.79,3.12,1.79,4.02,2.99c0.08,0.09,0.17,0.11,0.26,0.06c0.08-0.04,0.13-0.11,0.13-0.19
				l0.06-17.47c0-0.34,0.13-0.64,0.39-0.9s0.56-0.39,0.9-0.39h3.41c0.34,0,0.64,0.13,0.9,0.39s0.39,0.56,0.39,0.9
				C154.62,24.52,154.68,27.5,154.77,32.08z M147.12,47.73c-0.86-1.43-2-2.58-3.44-3.44c-1.44-0.86-3.01-1.28-4.72-1.28
				c-1.71,0-3.29,0.43-4.72,1.28c-1.44,0.86-2.58,2-3.44,3.44c-0.86,1.44-1.28,3.01-1.28,4.72c0,1.71,0.43,3.3,1.28,4.75
				c0.86,1.46,2.01,2.6,3.47,3.44c1.46,0.83,3.02,1.25,4.69,1.25c1.71,0,3.29-0.43,4.72-1.28c1.43-0.86,2.58-2,3.44-3.44
				c0.86-1.43,1.28-3.01,1.28-4.72C148.41,50.74,147.98,49.16,147.12,47.73z"/>
			<path class="st2" d="M168.45,20.39c0.21,0.21,0.32,0.47,0.32,0.77l0.19,10.28v25.44l-0.19,10.34c0,0.3-0.11,0.56-0.32,0.77
				c-0.21,0.21-0.47,0.32-0.77,0.32h-3.79c-0.3,0-0.56-0.11-0.77-0.32c-0.21-0.21-0.32-0.47-0.32-0.77l-0.19-10.34V31.44l0.19-10.28
				c0-0.3,0.11-0.56,0.32-0.77c0.21-0.21,0.47-0.32,0.77-0.32h3.79C167.98,20.07,168.24,20.18,168.45,20.39z"/>
			<path class="st2" d="M181.68,85.47c-0.26-0.39-0.3-0.79-0.13-1.22l5.72-15.93l-11.82-28.91c-0.04-0.09-0.06-0.21-0.06-0.39
				c0-0.34,0.11-0.62,0.32-0.84c0.21-0.21,0.47-0.32,0.77-0.32h3.98c0.47,0,0.81,0.24,1.03,0.71l9.25,21.14l9.19-21.14
				c0.21-0.47,0.58-0.71,1.09-0.71h3.92c0.39,0,0.68,0.16,0.9,0.48c0.21,0.32,0.26,0.68,0.13,1.06l-18.31,45.81
				c-0.09,0.26-0.25,0.46-0.48,0.61c-0.24,0.15-0.5,0.22-0.8,0.22h-3.6C182.3,86.05,181.94,85.86,181.68,85.47z"/>
		</g>
		
			<linearGradient id="SVGID_1_" gradientUnits="userSpaceOnUse" x1="49.7109" y1="34.2086" x2="3.6193" y2="34.2086" gradientTransform="matrix(1 -1.652848e-03 1.652848e-03 1 -2.1725 3.4788)">
			<stop  offset="0" style="stop-color:#DD156C"/>
			<stop  offset="0.156" style="stop-color:#C12573"/>
			<stop  offset="0.4124" style="stop-color:#993C7D"/>
			<stop  offset="0.6474" style="stop-color:#7D4D85"/>
			<stop  offset="0.8509" style="stop-color:#6B5789"/>
			<stop  offset="1" style="stop-color:#655B8B"/>
		</linearGradient>
		<path class="st3" d="M15.1,72.01c-1.68,0-3.07-1.34-3.12-3.03c-0.12-4.21,0.08-8.06,0.62-11.52c-3.59,2.15-6.68,3.22-6.94,3.31
			c-1.64,0.55-3.41-0.32-3.96-1.96c-0.55-1.63,0.32-3.4,1.95-3.96l0,0c0.06-0.02,3.58-1.25,7.13-3.62
			C7.33,43.4,5.85,35.03,5.24,30.25C4.4,23.6,5.44,17.12,8.17,12c2.59-4.86,6.53-8.08,10.52-8.62c4.43-0.6,9.64,2.01,10.93,11.1
			c0.98,6.89,0.01,14.62-2.89,23.06c2.2-0.58,4.59-0.7,7.1-0.36c9.11,1.34,14.12,7.64,13.77,17.28l-0.01,0.15
			c-0.43,5.05-2.85,9.25-6.81,11.83c-4.29,2.8-9.83,3.35-15.19,1.51l-0.32-0.13c-2.65-1.25-4.96-2.98-6.97-5.03
			c-0.12,1.89-0.15,3.89-0.08,5.99c0.05,1.72-1.31,3.16-3.03,3.21C15.16,72,15.13,72.01,15.1,72.01z M27.78,62.11
			c3.47,1.15,6.96,0.82,9.59-0.89c2.33-1.52,3.71-3.96,3.99-7.06c0.21-6.4-2.54-9.93-8.41-10.79c-3.44-0.47-6.35,0.33-8.63,2.38
			c-2.11,1.9-3.7,4.86-4.74,8.71C21.74,57.73,24.43,60.49,27.78,62.11z M19.84,9.55c-0.1,0-0.21,0.01-0.32,0.02
			c-3.64,0.49-9.62,7.75-8.08,19.89c0.41,3.23,1.55,10.38,4.27,17.31c0.51-0.67,0.96-1.38,1.32-2.13
			c5.42-11.19,7.58-21.04,6.41-29.28C23.24,13.97,22.4,9.55,19.84,9.55z"/>
		<g>
			<g>
				<path class="st4" d="M13.3,86.56c-1.02,0-1.58,0-1.68-0.01s-0.14-0.02-0.14-0.05v-0.04c0-0.02,0.04-0.19,0.11-0.49
					c0.21-0.89,0.55-2.15,1.01-3.78c0.2-0.74,0.33-1.18,0.39-1.33h1.84c0,0.02-0.04,0.17-0.13,0.43l-0.11,0.43h0.02
					c0.04,0,0.15-0.06,0.34-0.17c0.66-0.35,1.27-0.52,1.82-0.52c0.09,0,0.14,0,0.17,0.01s0.04,0.03,0.04,0.08
					c0,0.06-0.02,0.19-0.07,0.38s-0.08,0.29-0.12,0.3c-0.04,0.01-0.07,0.02-0.11,0.02c-0.19,0-0.46,0.15-0.83,0.45
					c-0.37,0.3-0.74,0.66-1.1,1.08c-0.37,0.42-0.66,0.82-0.87,1.21c-0.09,0.16-0.2,0.53-0.34,1.11L13.3,86.56z"/>
				<path class="st4" d="M18.71,87.04c-0.75,0-1.38-0.18-1.9-0.55c-0.52-0.37-0.78-0.88-0.78-1.53c0-0.54,0.14-1.07,0.43-1.61
					c0.29-0.54,0.61-0.99,0.96-1.35c0.39-0.42,0.86-0.8,1.43-1.11c0.57-0.32,1.15-0.48,1.75-0.48c0.41,0,0.81,0.11,1.2,0.32
					c0.3,0.19,0.45,0.4,0.45,0.64c0,0.36-0.21,0.75-0.63,1.15c-0.42,0.41-0.86,0.77-1.32,1.09c-0.46,0.32-0.8,0.52-1,0.59
					c-0.21,0.07-0.42,0.14-0.65,0.21c-0.27,0.06-0.5,0.09-0.67,0.09c-0.01,0-0.02,0.09-0.02,0.28c0,0.16,0.02,0.36,0.07,0.6
					c0.05,0.24,0.15,0.45,0.29,0.63c0.14,0.18,0.37,0.27,0.68,0.27l0.28-0.04c0.81-0.22,1.69-0.79,2.62-1.7
					c0.39-0.37,0.66-0.7,0.83-0.97c0.05-0.11,0.1-0.17,0.15-0.17c0.08,0,0.26,0.16,0.56,0.47l0.51,0.51
					c-0.95,1.01-2.01,1.77-3.18,2.27l-0.17,0.06C19.93,86.93,19.3,87.04,18.71,87.04z M18.26,83.65c0.04,0,0.12-0.04,0.26-0.11
					c0.47-0.26,0.9-0.62,1.27-1.09c0.34-0.41,0.51-0.76,0.51-1.03c0-0.1-0.01-0.15-0.04-0.15l-0.09,0.06
					c-0.28,0.16-0.57,0.4-0.88,0.71c-0.39,0.39-0.69,0.81-0.92,1.26c-0.09,0.17-0.13,0.29-0.13,0.36H18.26z"/>
				<path class="st4" d="M24.28,87.59c-0.69,0-1.27-0.19-1.74-0.58c-0.42-0.4-0.64-0.94-0.64-1.63c0-0.36,0.05-0.71,0.15-1.05
					c0.4-1.37,1.15-2.51,2.25-3.41c1.07-0.95,2.08-1.42,3.03-1.42c0.31,0,0.63,0.06,0.94,0.19c0.4,0.19,0.6,0.52,0.6,1.01
					c0,0.25-0.04,0.5-0.12,0.75c-0.08,0.25-0.23,0.61-0.46,1.07c-0.64,0-1.07,0.01-1.29,0.02l-0.39,0.02c-0.1,0-0.16-0.01-0.17-0.02
					l0.04-0.06c0.14-0.25,0.26-0.51,0.36-0.77c0.11-0.35,0.17-0.67,0.17-0.96c0-0.21-0.02-0.32-0.06-0.32c-0.05,0-0.2,0.1-0.46,0.3
					c-0.26,0.2-0.51,0.42-0.76,0.67c-0.84,0.81-1.42,1.77-1.76,2.88c-0.1,0.34-0.15,0.72-0.15,1.16c0,0.9,0.29,1.35,0.88,1.35
					c0.37-0.01,0.74-0.12,1.1-0.34c0.7-0.39,1.51-0.98,2.44-1.78c0.63-0.52,1.17-1.05,1.63-1.57c0.31,0.33,0.63,0.64,0.96,0.96
					l-0.39,0.37c-0.55,0.51-1.18,1.03-1.89,1.55c-0.81,0.61-1.7,1.07-2.68,1.37C25.35,87.51,24.83,87.59,24.28,87.59z"/>
				<path class="st4" d="M30.78,86.97c-0.28,0-0.52-0.02-0.75-0.08c-0.65-0.16-1.07-0.49-1.26-0.99c-0.14-0.36-0.21-0.76-0.21-1.18
					c0-0.34,0.08-0.72,0.22-1.14c0.37-1.11,0.9-1.9,1.57-2.36c0.67-0.46,1.27-0.69,1.8-0.69c0.15,0,0.3,0.02,0.44,0.06
					c0.14,0.04,0.25,0.06,0.33,0.06l0.13,0.04c0.26,0.07,0.47,0.16,0.62,0.24c0.41,0.25,0.71,0.66,0.88,1.24
					c0.06,0.22,0.09,0.47,0.09,0.73c0,0.85-0.31,1.72-0.92,2.62c-0.55,0.72-1.32,1.19-2.32,1.4C31.23,86.95,31.01,86.97,30.78,86.97
					z M31.04,86.18c0.05,0,0.13-0.04,0.24-0.13L31.38,86c0.21-0.16,0.42-0.39,0.63-0.69s0.37-0.61,0.48-0.94
					c0.17-0.47,0.26-0.91,0.26-1.31c0-0.51-0.13-0.96-0.39-1.35c-0.15-0.2-0.25-0.3-0.3-0.3c-0.05,0-0.22,0.17-0.52,0.51
					c-0.2,0.24-0.41,0.58-0.62,1.03c-0.28,0.61-0.41,1.2-0.41,1.76c0,0.59,0.12,1.03,0.37,1.33C30.94,86.13,31,86.18,31.04,86.18z"
					/>
				<path class="st4" d="M36.49,86.43h-1.41c-0.22,0-0.35-0.01-0.38-0.02c-0.03-0.01-0.05-0.03-0.05-0.06l0.15-0.58
					c0.24-0.97,0.58-2.26,1.03-3.86c0.2-0.72,0.31-1.1,0.34-1.12s0.09-0.04,0.2-0.05c0.11-0.01,0.35-0.01,0.74-0.01
					c0.6,0,0.9,0.01,0.9,0.04L37.8,81.5c-0.11,0.4-0.17,0.63-0.17,0.69v0.02c0.04,0,0.12-0.05,0.23-0.15
					c0.12-0.1,0.29-0.21,0.52-0.34c0.56-0.32,1.04-0.49,1.44-0.49c0.12,0,0.26,0.02,0.39,0.06c0.46,0.11,0.74,0.23,0.82,0.36
					c0.09,0.09,0.13,0.15,0.13,0.18s0.02,0.1,0.06,0.22l0.02,0.17c0,0.25-0.07,0.66-0.21,1.22c-0.1,0.41-0.15,0.78-0.15,1.09
					c0,0.24,0.03,0.42,0.08,0.56c0.06,0.14,0.09,0.21,0.1,0.21c0.06,0,0.26-0.12,0.59-0.37c0.33-0.24,0.7-0.54,1.1-0.88
					s0.61-0.52,0.65-0.54s0.07-0.03,0.1-0.03c0.05,0,0.23,0.09,0.54,0.26c0.36,0.2,0.54,0.31,0.54,0.34c0,0.04-0.12,0.16-0.37,0.37
					c-0.24,0.21-0.51,0.42-0.81,0.65c-0.29,0.22-0.53,0.39-0.72,0.51c-0.31,0.19-0.65,0.34-1.02,0.46
					c-0.37,0.12-0.67,0.18-0.91,0.18c-1.22,0-1.84-0.52-1.84-1.57c0-0.35,0.06-0.78,0.19-1.29c0.04-0.18,0.07-0.33,0.09-0.46
					c0.02-0.13,0.04-0.23,0.04-0.29c0-0.05-0.01-0.07-0.02-0.07s-0.04,0.02-0.09,0.06c-0.39,0.31-0.86,0.81-1.42,1.5
					c-0.44,0.55-0.74,0.99-0.92,1.31c-0.12,0.29-0.22,0.58-0.28,0.88L36.49,86.43z"/>
				<path class="st4" d="M44.88,86.97c-0.28,0-0.52-0.02-0.75-0.08c-0.65-0.16-1.07-0.49-1.26-0.99c-0.14-0.36-0.21-0.76-0.21-1.18
					c0-0.34,0.08-0.72,0.22-1.14c0.37-1.11,0.9-1.9,1.57-2.36c0.67-0.46,1.27-0.69,1.8-0.69c0.15,0,0.3,0.02,0.44,0.06
					c0.14,0.04,0.25,0.06,0.33,0.06l0.13,0.04c0.26,0.07,0.47,0.16,0.62,0.24c0.41,0.25,0.71,0.66,0.88,1.24
					c0.06,0.22,0.09,0.47,0.09,0.73c0,0.85-0.31,1.72-0.92,2.62c-0.55,0.72-1.32,1.19-2.32,1.4C45.33,86.95,45.12,86.97,44.88,86.97
					z M45.14,86.18c0.05,0,0.13-0.04,0.24-0.13L45.48,86c0.21-0.16,0.42-0.39,0.63-0.69s0.37-0.61,0.48-0.94
					c0.17-0.47,0.26-0.91,0.26-1.31c0-0.51-0.13-0.96-0.39-1.35c-0.15-0.2-0.25-0.3-0.3-0.3c-0.05,0-0.22,0.17-0.52,0.51
					c-0.2,0.24-0.41,0.58-0.62,1.03c-0.28,0.61-0.41,1.2-0.41,1.76c0,0.59,0.12,1.03,0.37,1.33C45.05,86.13,45.11,86.18,45.14,86.18
					z"/>
				<path class="st4" d="M51.14,87.59c-0.69,0-1.27-0.19-1.74-0.58c-0.42-0.4-0.64-0.94-0.64-1.63c0-0.36,0.05-0.71,0.15-1.05
					c0.4-1.37,1.15-2.51,2.25-3.41c1.07-0.95,2.08-1.42,3.03-1.42c0.31,0,0.63,0.06,0.94,0.19c0.4,0.19,0.6,0.52,0.6,1.01
					c0,0.25-0.04,0.5-0.12,0.75c-0.08,0.25-0.23,0.61-0.46,1.07c-0.64,0-1.07,0.01-1.29,0.02l-0.39,0.02c-0.1,0-0.16-0.01-0.17-0.02
					l0.04-0.06c0.14-0.25,0.26-0.51,0.36-0.77c0.11-0.35,0.17-0.67,0.17-0.96c0-0.21-0.02-0.32-0.06-0.32c-0.05,0-0.2,0.1-0.46,0.3
					c-0.26,0.2-0.51,0.42-0.76,0.67c-0.84,0.81-1.42,1.77-1.76,2.88c-0.1,0.34-0.15,0.72-0.15,1.16c0,0.9,0.29,1.35,0.88,1.35
					c0.37-0.01,0.74-0.12,1.1-0.34c0.7-0.39,1.51-0.98,2.44-1.78c0.63-0.52,1.17-1.05,1.63-1.57c0.31,0.33,0.63,0.64,0.96,0.96
					l-0.39,0.37c-0.55,0.51-1.18,1.03-1.89,1.55c-0.81,0.61-1.7,1.07-2.68,1.37C52.21,87.51,51.69,87.59,51.14,87.59z"/>
				<path class="st4" d="M57.34,87.27c-0.17,0-0.35-0.02-0.52-0.06c-0.44-0.11-0.75-0.27-0.95-0.46c-0.19-0.19-0.29-0.51-0.29-0.96
					c0-0.74,0.28-1.87,0.84-3.41c0.3-0.86,0.48-1.35,0.54-1.48c0.04-0.07,0.08-0.12,0.12-0.13c0.04-0.01,0.24-0.02,0.59-0.02
					c0.69,0,1.06,0.01,1.12,0.04c0,0.08-0.11,0.43-0.34,1.07c-0.47,1.44-0.77,2.45-0.88,3.03c-0.05,0.27-0.08,0.52-0.08,0.75
					c0,0.22,0.02,0.41,0.08,0.54l0.09,0.21l0.41-0.19c0.31-0.18,0.81-0.51,1.51-1c0.69-0.49,1.32-0.96,1.88-1.4
					c0.21-0.16,0.32-0.24,0.34-0.24c0.04,0,0.18,0.13,0.42,0.38s0.37,0.41,0.38,0.46c-0.12,0.11-0.6,0.47-1.42,1.07
					C59.55,86.67,58.26,87.27,57.34,87.27z M58.18,79.83c-0.26,0-0.48,0-0.65,0c-0.17,0-0.26-0.01-0.27-0.02
					c0-0.06,0.09-0.35,0.26-0.86c0.17-0.51,0.28-0.78,0.32-0.8c0.04-0.03,0.63-0.04,1.78-0.04l-0.52,1.7L58.18,79.83z"/>
				<path class="st4" d="M63.29,87.04c-0.75,0-1.38-0.18-1.9-0.55c-0.52-0.37-0.78-0.88-0.78-1.53c0-0.54,0.14-1.07,0.43-1.61
					c0.29-0.54,0.61-0.99,0.96-1.35c0.39-0.42,0.86-0.8,1.43-1.11c0.57-0.32,1.15-0.48,1.75-0.48c0.41,0,0.81,0.11,1.2,0.32
					c0.3,0.19,0.45,0.4,0.45,0.64c0,0.36-0.21,0.75-0.63,1.15c-0.42,0.41-0.86,0.77-1.32,1.09c-0.46,0.32-0.8,0.52-1,0.59
					c-0.21,0.07-0.42,0.14-0.65,0.21c-0.27,0.06-0.5,0.09-0.67,0.09c-0.01,0-0.02,0.09-0.02,0.28c0,0.16,0.02,0.36,0.07,0.6
					c0.05,0.24,0.15,0.45,0.29,0.63c0.14,0.18,0.37,0.27,0.68,0.27l0.28-0.04c0.81-0.22,1.69-0.79,2.62-1.7
					c0.39-0.37,0.66-0.7,0.83-0.97c0.05-0.11,0.1-0.17,0.15-0.17c0.08,0,0.26,0.16,0.56,0.47l0.51,0.51
					c-0.95,1.01-2.01,1.77-3.18,2.27l-0.17,0.06C64.51,86.93,63.88,87.04,63.29,87.04z M62.84,83.65c0.04,0,0.12-0.04,0.26-0.11
					c0.47-0.26,0.9-0.62,1.27-1.09c0.34-0.41,0.51-0.76,0.51-1.03c0-0.1-0.01-0.15-0.04-0.15l-0.09,0.06
					c-0.28,0.16-0.57,0.4-0.88,0.71c-0.39,0.39-0.69,0.81-0.92,1.26c-0.09,0.17-0.13,0.29-0.13,0.36H62.84z"/>
				<path class="st4" d="M68.31,86.43h-1.41c-0.22,0-0.35-0.01-0.38-0.02c-0.03-0.01-0.05-0.03-0.05-0.06l0.15-0.58
					c0.24-0.97,0.58-2.26,1.03-3.86c0.2-0.72,0.31-1.1,0.34-1.12c0.03-0.02,0.09-0.04,0.2-0.05c0.11-0.01,0.35-0.01,0.74-0.01
					c0.6,0,0.9,0.01,0.9,0.04l-0.21,0.73c-0.11,0.4-0.17,0.63-0.17,0.69v0.02c0.04,0,0.12-0.05,0.23-0.15
					c0.12-0.1,0.29-0.21,0.52-0.34c0.56-0.32,1.04-0.49,1.44-0.49c0.12,0,0.26,0.02,0.39,0.06c0.46,0.11,0.74,0.23,0.82,0.36
					C72.95,81.74,73,81.8,73,81.83s0.02,0.1,0.06,0.22l0.02,0.17c0,0.25-0.07,0.66-0.21,1.22c-0.1,0.41-0.15,0.78-0.15,1.09
					c0,0.24,0.03,0.42,0.08,0.56c0.06,0.14,0.09,0.21,0.1,0.21c0.06,0,0.26-0.12,0.59-0.37c0.33-0.24,0.7-0.54,1.1-0.88
					c0.4-0.34,0.61-0.52,0.65-0.54s0.07-0.03,0.1-0.03c0.05,0,0.23,0.09,0.54,0.26c0.36,0.2,0.54,0.31,0.54,0.34
					c0,0.04-0.12,0.16-0.37,0.37c-0.24,0.21-0.51,0.42-0.81,0.65c-0.29,0.22-0.53,0.39-0.72,0.51c-0.31,0.19-0.65,0.34-1.02,0.46
					c-0.37,0.12-0.67,0.18-0.91,0.18c-1.22,0-1.84-0.52-1.84-1.57c0-0.35,0.06-0.78,0.19-1.29c0.04-0.18,0.07-0.33,0.09-0.46
					c0.02-0.13,0.04-0.23,0.04-0.29c0-0.05-0.01-0.07-0.02-0.07c-0.01,0-0.04,0.02-0.09,0.06c-0.39,0.31-0.86,0.81-1.42,1.5
					c-0.44,0.55-0.74,0.99-0.92,1.31c-0.12,0.29-0.22,0.58-0.28,0.88L68.31,86.43z"/>
				<path class="st4" d="M79.83,89.01H78.3c-0.24-0.01-0.36-0.04-0.36-0.08c0-0.05,0.07-0.33,0.21-0.84
					c0.36-1.3,0.67-2.35,0.92-3.15c0.15-0.45,0.23-0.7,0.23-0.75c-0.01,0-0.14,0.16-0.39,0.47c-0.85,1.09-1.67,1.72-2.45,1.89
					c-0.2,0.05-0.4,0.07-0.6,0.07c-0.24,0-0.46-0.04-0.68-0.13c-0.21-0.09-0.38-0.24-0.5-0.46c-0.12-0.22-0.18-0.45-0.18-0.7
					l0.02-0.28c0.19-0.8,0.52-1.53,0.99-2.19c0.61-0.92,1.45-1.54,2.51-1.85c0.19-0.05,0.39-0.08,0.6-0.08
					c0.19,0,0.36,0.02,0.52,0.07c0.16,0.04,0.26,0.07,0.28,0.07c0.03,0,0.16-0.21,0.41-0.62c0.25-0.41,0.53-0.9,0.85-1.47
					c0.32-0.57,0.61-1.11,0.89-1.62c0.14-0.25,0.25-0.46,0.35-0.64c0.09-0.17,0.14-0.27,0.15-0.3c0.01-0.02,0.42-0.04,1.24-0.04
					c0.29,0,0.46,0,0.52,0c0.06,0,0.09,0,0.11,0.01c0.02,0.01,0.03,0.02,0.03,0.05c-0.05,0.15-0.19,0.49-0.41,1.03
					c-0.42,1.07-0.95,2.58-1.59,4.53c-0.72,2.16-1.37,4.25-1.93,6.28L79.83,89.01z M76.41,85.32c0.02,0,0.11-0.09,0.24-0.26
					c0.27-0.31,0.64-0.77,1.09-1.37c0.74-1.02,1.1-1.57,1.1-1.65c0-0.01-0.09-0.11-0.28-0.3l-0.19,0.13
					c-0.5,0.39-0.99,1.02-1.46,1.91c-0.11,0.25-0.22,0.51-0.32,0.77c-0.14,0.36-0.21,0.61-0.21,0.73L76.41,85.32z"/>
				<path class="st4" d="M84.31,86.97c-0.28,0-0.52-0.02-0.75-0.08c-0.65-0.16-1.07-0.49-1.26-0.99c-0.14-0.36-0.21-0.76-0.21-1.18
					c0-0.34,0.08-0.72,0.22-1.14c0.37-1.11,0.9-1.9,1.57-2.36c0.67-0.46,1.27-0.69,1.8-0.69c0.15,0,0.3,0.02,0.44,0.06
					c0.14,0.04,0.25,0.06,0.33,0.06l0.13,0.04c0.26,0.07,0.47,0.16,0.62,0.24c0.41,0.25,0.71,0.66,0.88,1.24
					c0.06,0.22,0.09,0.47,0.09,0.73c0,0.85-0.31,1.72-0.92,2.62c-0.55,0.72-1.32,1.19-2.32,1.4C84.76,86.95,84.55,86.97,84.31,86.97
					z M84.57,86.18c0.05,0,0.13-0.04,0.24-0.13L84.91,86c0.21-0.16,0.42-0.39,0.63-0.69c0.21-0.3,0.37-0.61,0.48-0.94
					c0.17-0.47,0.26-0.91,0.26-1.31c0-0.51-0.13-0.96-0.39-1.35c-0.15-0.2-0.25-0.3-0.3-0.3s-0.22,0.17-0.52,0.51
					c-0.2,0.24-0.41,0.58-0.62,1.03c-0.28,0.61-0.41,1.2-0.41,1.76c0,0.59,0.12,1.03,0.37,1.33C84.48,86.13,84.53,86.18,84.57,86.18
					z"/>
				<path class="st4" d="M94.71,86.43H93.3c-0.22,0-0.35-0.01-0.38-0.02c-0.03-0.01-0.05-0.03-0.05-0.06l0.15-0.58
					c0.24-0.97,0.58-2.26,1.03-3.86c0.2-0.72,0.31-1.1,0.34-1.12c0.03-0.02,0.09-0.04,0.2-0.05c0.11-0.01,0.35-0.01,0.74-0.01
					c0.6,0,0.9,0.01,0.9,0.04l-0.21,0.73c-0.11,0.4-0.17,0.63-0.17,0.69v0.02c0.04,0,0.12-0.05,0.23-0.15
					c0.12-0.1,0.29-0.21,0.52-0.34c0.56-0.32,1.04-0.49,1.44-0.49c0.12,0,0.26,0.02,0.39,0.06c0.46,0.11,0.74,0.23,0.82,0.36
					c0.09,0.09,0.13,0.15,0.13,0.18s0.02,0.1,0.06,0.22l0.02,0.17c0,0.25-0.07,0.66-0.21,1.22c-0.1,0.41-0.15,0.78-0.15,1.09
					c0,0.24,0.03,0.42,0.08,0.56c0.06,0.14,0.09,0.21,0.1,0.21c0.06,0,0.26-0.12,0.59-0.37c0.33-0.24,0.7-0.54,1.1-0.88
					c0.4-0.34,0.61-0.52,0.65-0.54s0.07-0.03,0.1-0.03c0.05,0,0.23,0.09,0.54,0.26c0.36,0.2,0.54,0.31,0.54,0.34
					c0,0.04-0.12,0.16-0.37,0.37c-0.24,0.21-0.51,0.42-0.81,0.65c-0.29,0.22-0.53,0.39-0.72,0.51c-0.31,0.19-0.65,0.34-1.02,0.46
					c-0.37,0.12-0.67,0.18-0.91,0.18c-1.22,0-1.84-0.52-1.84-1.57c0-0.35,0.06-0.78,0.19-1.29c0.04-0.18,0.07-0.33,0.09-0.46
					c0.02-0.13,0.04-0.23,0.04-0.29c0-0.05-0.01-0.07-0.02-0.07s-0.04,0.02-0.09,0.06c-0.39,0.31-0.86,0.81-1.42,1.5
					c-0.44,0.55-0.74,0.99-0.92,1.31c-0.12,0.29-0.22,0.58-0.28,0.88L94.71,86.43z"/>
				<path class="st4" d="M105.55,86.48h-0.84c0.01-0.16,0.04-0.31,0.08-0.43c0.09-0.3,0.16-0.52,0.22-0.67
					c0-0.01-0.01-0.02-0.02-0.02c-0.01,0-0.05,0.03-0.11,0.08c-0.28,0.22-0.51,0.39-0.69,0.51c-0.54,0.3-1.07,0.45-1.61,0.45
					c-0.36,0-0.7-0.08-1.01-0.22c-0.11-0.05-0.19-0.1-0.24-0.14c-0.05-0.04-0.1-0.11-0.13-0.21s-0.07-0.17-0.08-0.22
					c-0.02-0.06-0.03-0.13-0.03-0.23v-0.19c0-0.6,0.19-1.43,0.58-2.49c0.34-0.89,0.57-1.39,0.69-1.52c0-0.04,0.31-0.06,0.92-0.06
					c0.36,0,0.6,0.01,0.7,0.02c0.11,0.01,0.16,0.03,0.16,0.06c0,0.04-0.04,0.16-0.13,0.36c-0.21,0.49-0.41,1-0.58,1.54
					c-0.29,0.89-0.43,1.55-0.43,1.99c0,0.14,0.01,0.22,0.04,0.24c0.06,0,0.34-0.26,0.84-0.79c0.39-0.42,0.84-0.99,1.35-1.69
					c0.34-0.45,0.81-1.14,1.4-2.06h0.97l0.96,0.02l-0.09,0.3c-0.15,0.45-0.31,0.89-0.49,1.33l-0.43,1.22
					c-0.5,1.39-0.79,2.22-0.86,2.51c-0.05,0.17-0.11,0.27-0.18,0.3C106.43,86.47,106.11,86.48,105.55,86.48z"/>
				<path class="st4" d="M110.48,87.04c-0.75,0-1.38-0.18-1.9-0.55c-0.52-0.37-0.78-0.88-0.78-1.53c0-0.54,0.14-1.07,0.43-1.61
					c0.29-0.54,0.61-0.99,0.96-1.35c0.39-0.42,0.86-0.8,1.43-1.11c0.57-0.32,1.15-0.48,1.75-0.48c0.41,0,0.81,0.11,1.2,0.32
					c0.3,0.19,0.45,0.4,0.45,0.64c0,0.36-0.21,0.75-0.63,1.15c-0.42,0.41-0.86,0.77-1.32,1.09c-0.46,0.32-0.8,0.52-1,0.59
					c-0.21,0.07-0.42,0.14-0.65,0.21c-0.27,0.06-0.5,0.09-0.67,0.09c-0.01,0-0.02,0.09-0.02,0.28c0,0.16,0.02,0.36,0.07,0.6
					c0.05,0.24,0.15,0.45,0.29,0.63c0.14,0.18,0.37,0.27,0.68,0.27l0.28-0.04c0.81-0.22,1.69-0.79,2.62-1.7
					c0.39-0.37,0.66-0.7,0.83-0.97c0.05-0.11,0.1-0.17,0.15-0.17c0.08,0,0.26,0.16,0.56,0.47l0.51,0.51
					c-0.95,1.01-2.01,1.77-3.18,2.27l-0.17,0.06C111.69,86.93,111.06,87.04,110.48,87.04z M110.03,83.65c0.04,0,0.12-0.04,0.26-0.11
					c0.47-0.26,0.9-0.62,1.27-1.09c0.34-0.41,0.51-0.76,0.51-1.03c0-0.1-0.01-0.15-0.04-0.15l-0.09,0.06
					c-0.28,0.16-0.57,0.4-0.88,0.71c-0.39,0.39-0.69,0.81-0.92,1.26c-0.09,0.17-0.13,0.29-0.13,0.36H110.03z"/>
				<path class="st4" d="M114.34,89.26c-0.14,0-0.26-0.01-0.37-0.02c-0.71-0.12-1.24-0.32-1.59-0.58c-0.14-0.12-0.21-0.27-0.21-0.43
					c0-0.16,0.07-0.35,0.21-0.56c0.26-0.42,1.04-0.97,2.34-1.65l0.86-0.45c-0.04-0.09-0.07-0.18-0.11-0.27
					c-0.04-0.09-0.13-0.28-0.28-0.57l-0.54-1.07c-0.15-0.34-0.22-0.64-0.22-0.92c0-0.8,0.59-1.46,1.78-1.99
					c0.43-0.19,0.8-0.28,1.12-0.28c0.14,0,0.34,0.02,0.6,0.08c0.26,0.05,0.49,0.12,0.69,0.21l-0.6,1.03
					c-0.05-0.05-0.11-0.11-0.18-0.17c-0.07-0.06-0.17-0.13-0.3-0.2c-0.13-0.07-0.23-0.1-0.29-0.1c-0.05,0-0.14,0.05-0.26,0.14
					s-0.23,0.19-0.3,0.29c-0.23,0.29-0.34,0.58-0.34,0.88c0,0.2,0.03,0.4,0.1,0.59c0.07,0.19,0.19,0.45,0.36,0.76
					c0.17,0.31,0.28,0.53,0.35,0.66c0.02,0.08,0.05,0.11,0.08,0.11l0.99-0.45c1.52-0.74,2.37-1.11,2.53-1.11
					c0.05,0,0.14,0.11,0.26,0.33c0.12,0.22,0.19,0.34,0.19,0.37c0,0.03-0.09,0.08-0.26,0.17c-0.43,0.19-1.01,0.46-1.74,0.82
					l-0.52,0.24c-0.72,0.34-1.09,0.52-1.09,0.54c0,0.05,0.01,0.13,0.04,0.24c0.08,0.39,0.11,0.69,0.11,0.92s-0.02,0.42-0.08,0.6
					c-0.32,0.85-1.14,1.44-2.45,1.76C114.92,89.23,114.64,89.26,114.34,89.26z M114.56,88.45c0.14,0,0.26-0.02,0.37-0.08
					c0.31-0.16,0.54-0.4,0.69-0.71c0.09-0.15,0.14-0.37,0.15-0.67l0.02-0.43c-1.11,0.59-1.67,1.09-1.67,1.5
					c0,0.1,0.04,0.19,0.11,0.27C114.32,88.41,114.42,88.45,114.56,88.45z"/>
				<path class="st4" d="M120.65,88.54h-1.41c-0.22,0-0.35-0.01-0.38-0.02c-0.03-0.01-0.05-0.03-0.05-0.06l0.06-0.21
					c0.05-0.25,0.29-1.13,0.71-2.64c0.72-2.68,1.24-4.56,1.55-5.64c0.08-0.27,0.11-0.43,0.11-0.47V79.5h-1.52
					c0-0.04,0.06-0.27,0.19-0.71c0.01-0.04,0.06-0.06,0.13-0.07c0.08-0.01,0.29-0.01,0.64-0.01c0.5,0,0.77-0.02,0.81-0.05
					s0.19-0.46,0.44-1.28l1.44-0.02c0.2,0,0.32,0,0.35,0.01c0.03,0.01,0.05,0.02,0.05,0.05l-0.34,1.14c0,0.02,0.3,0.04,0.92,0.04
					l2.73-0.02c0.03,0.01,0.04,0.04,0.04,0.08c0,0.05-0.02,0.14-0.06,0.28c-0.06,0.21-0.11,0.34-0.13,0.38
					c-0.02,0.04-0.44,0.07-1.25,0.07c-1.1,0-1.84,0.01-2.23,0.04c-0.16,0.01-0.27,0.04-0.31,0.07c-0.04,0.04-0.66,2.21-1.84,6.52
					C121.03,87.01,120.81,87.86,120.65,88.54z"/>
				<path class="st4" d="M124.51,86.56c-1.02,0-1.58,0-1.68-0.01s-0.14-0.02-0.14-0.05v-0.04c0-0.02,0.04-0.19,0.11-0.49
					c0.21-0.89,0.55-2.15,1.01-3.78c0.2-0.74,0.33-1.18,0.39-1.33h1.84c0,0.02-0.04,0.17-0.13,0.43l-0.11,0.43h0.02
					c0.04,0,0.15-0.06,0.34-0.17c0.66-0.35,1.27-0.52,1.82-0.52c0.09,0,0.14,0,0.17,0.01c0.02,0.01,0.04,0.03,0.04,0.08
					c0,0.06-0.02,0.19-0.07,0.38s-0.08,0.29-0.12,0.3c-0.04,0.01-0.08,0.02-0.11,0.02c-0.19,0-0.47,0.15-0.83,0.45
					c-0.37,0.3-0.74,0.66-1.1,1.08c-0.37,0.42-0.66,0.82-0.87,1.21c-0.09,0.16-0.2,0.53-0.34,1.11L124.51,86.56z"/>
				<path class="st4" d="M129.45,86.97c-0.28,0-0.52-0.02-0.75-0.08c-0.65-0.16-1.07-0.49-1.26-0.99c-0.14-0.36-0.21-0.76-0.21-1.18
					c0-0.34,0.08-0.72,0.22-1.14c0.37-1.11,0.9-1.9,1.57-2.36c0.67-0.46,1.27-0.69,1.8-0.69c0.15,0,0.3,0.02,0.44,0.06
					c0.14,0.04,0.25,0.06,0.33,0.06l0.13,0.04c0.26,0.07,0.47,0.16,0.62,0.24c0.41,0.25,0.71,0.66,0.88,1.24
					c0.06,0.22,0.09,0.47,0.09,0.73c0,0.85-0.31,1.72-0.92,2.62c-0.55,0.72-1.32,1.19-2.32,1.4
					C129.9,86.95,129.69,86.97,129.45,86.97z M129.71,86.18c0.05,0,0.13-0.04,0.24-0.13l0.09-0.06c0.21-0.16,0.42-0.39,0.63-0.69
					s0.37-0.61,0.48-0.94c0.17-0.47,0.26-0.91,0.26-1.31c0-0.51-0.13-0.96-0.39-1.35c-0.15-0.2-0.25-0.3-0.3-0.3
					c-0.05,0-0.22,0.17-0.52,0.51c-0.2,0.24-0.41,0.58-0.62,1.03c-0.28,0.61-0.41,1.2-0.41,1.76c0,0.59,0.12,1.03,0.37,1.33
					C129.62,86.13,129.68,86.18,129.71,86.18z"/>
				<path class="st4" d="M134.01,89.26c-0.14,0-0.26-0.01-0.37-0.02c-0.71-0.12-1.24-0.32-1.59-0.58c-0.14-0.12-0.21-0.27-0.21-0.43
					c0-0.16,0.07-0.35,0.21-0.56c0.26-0.42,1.04-0.97,2.34-1.65l0.86-0.45c-0.04-0.09-0.07-0.18-0.11-0.27
					c-0.04-0.09-0.13-0.28-0.28-0.57l-0.54-1.07c-0.15-0.34-0.22-0.64-0.22-0.92c0-0.8,0.59-1.46,1.78-1.99
					c0.43-0.19,0.8-0.28,1.12-0.28c0.14,0,0.34,0.02,0.6,0.08c0.26,0.05,0.49,0.12,0.69,0.21l-0.6,1.03
					c-0.05-0.05-0.11-0.11-0.18-0.17c-0.07-0.06-0.17-0.13-0.3-0.2c-0.13-0.07-0.23-0.1-0.29-0.1c-0.05,0-0.14,0.05-0.26,0.14
					s-0.23,0.19-0.3,0.29c-0.23,0.29-0.34,0.58-0.34,0.88c0,0.2,0.03,0.4,0.1,0.59c0.07,0.19,0.19,0.45,0.36,0.76
					c0.17,0.31,0.28,0.53,0.35,0.66c0.02,0.08,0.05,0.11,0.08,0.11l0.99-0.45c1.52-0.74,2.37-1.11,2.53-1.11
					c0.05,0,0.14,0.11,0.26,0.33c0.12,0.22,0.19,0.34,0.19,0.37c0,0.03-0.09,0.08-0.26,0.17c-0.43,0.19-1.01,0.46-1.74,0.82
					l-0.52,0.24c-0.72,0.34-1.09,0.52-1.09,0.54c0,0.05,0.01,0.13,0.04,0.24c0.08,0.39,0.11,0.69,0.11,0.92s-0.02,0.42-0.08,0.6
					c-0.32,0.85-1.14,1.44-2.45,1.76C134.59,89.23,134.3,89.26,134.01,89.26z M134.23,88.45c0.14,0,0.26-0.02,0.37-0.08
					c0.31-0.16,0.54-0.4,0.69-0.71c0.09-0.15,0.14-0.37,0.15-0.67l0.02-0.43c-1.11,0.59-1.67,1.09-1.67,1.5
					c0,0.1,0.04,0.19,0.11,0.27C133.99,88.41,134.09,88.45,134.23,88.45z"/>
				<path class="st4" d="M145.21,88.62c-0.32,0-0.66-0.08-1.01-0.24c-0.43-0.24-0.64-0.68-0.64-1.33c0-0.5,0.08-1.02,0.24-1.57
					v-0.02c0.21-0.84,0.57-2.02,1.09-3.54c0.63-1.9,1.28-3.71,1.95-5.43c0.64-0.04,1.14-0.06,1.5-0.06c0.24,0,0.36,0.01,0.36,0.04
					l-0.15,0.41l-0.58,1.63c-0.5,1.4-0.97,2.77-1.42,4.12c-0.7,2.14-1.05,3.57-1.05,4.31c0,0.34,0.02,0.51,0.06,0.51
					c0.08,0,0.22-0.14,0.45-0.41c1.1-1.16,1.87-2.05,2.3-2.66l0.3-0.39c0.05,0,0.27,0.12,0.67,0.35c0.4,0.23,0.6,0.36,0.6,0.38
					c0,0.01-0.04,0.07-0.13,0.18c-0.09,0.11-0.19,0.23-0.3,0.38c-0.55,0.64-1.1,1.24-1.64,1.8c-0.54,0.56-0.95,0.94-1.21,1.12
					C146.17,88.47,145.71,88.62,145.21,88.62z"/>
				<path class="st4" d="M152.77,86.48c-0.56,0-0.84-0.02-0.84-0.06v-0.09c0-0.12,0.08-0.46,0.24-1.01c0.08-0.25,0.11-0.4,0.11-0.45
					l-0.3,0.21c-0.31,0.24-0.59,0.42-0.84,0.56c-0.44,0.24-0.89,0.36-1.37,0.36c-1.11,0-1.67-0.39-1.67-1.16
					c0-0.1,0.03-0.28,0.08-0.54c0.05-0.26,0.2-0.59,0.46-0.98c0.26-0.39,0.52-0.7,0.8-0.91c0.57-0.52,1.22-0.91,1.95-1.16
					c0.32-0.11,0.63-0.17,0.92-0.17c0.21,0,0.42,0.03,0.64,0.09l0.22,0.06l0.26-0.45h0.94c0.61,0,0.93,0.01,0.96,0.04
					c0,0.08-0.09,0.41-0.26,0.99l-0.49,1.63c-0.06,0.19-0.23,0.79-0.49,1.8c-0.16,0.76-0.28,1.16-0.37,1.2
					S153.32,86.48,152.77,86.48z M150.17,85l0.3-0.26c0.52-0.46,1.1-1.15,1.72-2.06c0.24-0.32,0.36-0.54,0.36-0.64
					c0-0.06-0.06-0.11-0.17-0.13l-0.11-0.02l-0.11,0.02c-0.77,0.35-1.36,0.99-1.74,1.93c-0.16,0.37-0.24,0.68-0.24,0.92V85z"/>
				<path class="st4" d="M157.34,87.36c-0.59,0-1.1-0.1-1.54-0.3c-0.21-0.09-0.37-0.17-0.47-0.24l-0.04-0.06
					c-0.11-0.15-0.17-0.29-0.17-0.43c0-0.32,0.19-0.74,0.56-1.26c0.29-0.36,0.76-0.84,1.41-1.44c0.81-0.77,1.68-1.52,2.6-2.25
					l-0.28-0.02l-3.54,0.13c-0.03,0-0.04,0-0.06,0c-0.01,0-0.02-0.01-0.02-0.02c0-0.04,0.03-0.16,0.08-0.36
					c0.06-0.25,0.12-0.38,0.19-0.39c0.12-0.02,0.79-0.06,2-0.11c1.51-0.05,2.5-0.09,2.96-0.13l0.56,0.97
					c-0.4,0.3-0.95,0.77-1.67,1.4c-0.61,0.55-1.14,1.04-1.57,1.48c-0.85,0.85-1.27,1.47-1.27,1.87c0,0.11,0.03,0.2,0.09,0.27
					c0.06,0.07,0.13,0.1,0.21,0.1c0.32,0,0.78-0.1,1.37-0.3c0.47-0.16,0.94-0.36,1.4-0.58c0.28-0.14,0.44-0.21,0.51-0.21
					c0.03,0,0.06,0.02,0.11,0.07c0.08,0.1,0.15,0.22,0.23,0.36l0.17,0.32c0,0.03-0.11,0.08-0.34,0.17
					c-1.08,0.45-1.95,0.74-2.62,0.86C157.94,87.34,157.66,87.36,157.34,87.36z"/>
				<path class="st4" d="M163.81,86.97c-0.28,0-0.52-0.02-0.75-0.08c-0.65-0.16-1.07-0.49-1.25-0.99c-0.14-0.36-0.21-0.76-0.21-1.18
					c0-0.34,0.08-0.72,0.23-1.14c0.37-1.11,0.9-1.9,1.57-2.36c0.68-0.46,1.27-0.69,1.8-0.69c0.15,0,0.3,0.02,0.44,0.06
					c0.14,0.04,0.25,0.06,0.33,0.06l0.13,0.04c0.26,0.07,0.47,0.16,0.62,0.24c0.41,0.25,0.7,0.66,0.88,1.24
					c0.06,0.22,0.09,0.47,0.09,0.73c0,0.85-0.31,1.72-0.92,2.62c-0.55,0.72-1.32,1.19-2.32,1.4
					C164.26,86.95,164.04,86.97,163.81,86.97z M164.07,86.18c0.05,0,0.13-0.04,0.24-0.13l0.09-0.06c0.21-0.16,0.42-0.39,0.63-0.69
					c0.21-0.3,0.37-0.61,0.48-0.94c0.17-0.47,0.26-0.91,0.26-1.31c0-0.51-0.13-0.96-0.39-1.35c-0.15-0.2-0.25-0.3-0.3-0.3
					s-0.23,0.17-0.52,0.51c-0.2,0.24-0.41,0.58-0.62,1.03c-0.28,0.61-0.41,1.2-0.41,1.76c0,0.59,0.12,1.03,0.37,1.33
					C163.98,86.13,164.03,86.18,164.07,86.18z"/>
				<path class="st4" d="M168.36,89.26c-0.14,0-0.26-0.01-0.37-0.02c-0.71-0.12-1.24-0.32-1.59-0.58c-0.14-0.12-0.21-0.27-0.21-0.43
					c0-0.16,0.07-0.35,0.21-0.56c0.26-0.42,1.04-0.97,2.34-1.65l0.86-0.45c-0.04-0.09-0.08-0.18-0.11-0.27
					c-0.04-0.09-0.13-0.28-0.28-0.57l-0.54-1.07c-0.15-0.34-0.23-0.64-0.23-0.92c0-0.8,0.59-1.46,1.78-1.99
					c0.42-0.19,0.8-0.28,1.12-0.28c0.14,0,0.34,0.02,0.6,0.08c0.26,0.05,0.49,0.12,0.69,0.21l-0.6,1.03
					c-0.05-0.05-0.11-0.11-0.18-0.17c-0.07-0.06-0.17-0.13-0.3-0.2c-0.13-0.07-0.23-0.1-0.29-0.1c-0.05,0-0.14,0.05-0.26,0.14
					s-0.22,0.19-0.3,0.29c-0.22,0.29-0.34,0.58-0.34,0.88c0,0.2,0.03,0.4,0.1,0.59c0.07,0.19,0.19,0.45,0.35,0.76
					c0.17,0.31,0.28,0.53,0.35,0.66c0.03,0.08,0.05,0.11,0.08,0.11l0.99-0.45c1.52-0.74,2.37-1.11,2.53-1.11
					c0.05,0,0.14,0.11,0.26,0.33c0.12,0.22,0.19,0.34,0.19,0.37c0,0.03-0.09,0.08-0.26,0.17c-0.42,0.19-1.01,0.46-1.74,0.82
					l-0.52,0.24c-0.72,0.34-1.09,0.52-1.09,0.54c0,0.05,0.01,0.13,0.04,0.24c0.07,0.39,0.11,0.69,0.11,0.92s-0.03,0.42-0.08,0.6
					c-0.32,0.85-1.14,1.44-2.45,1.76C168.95,89.23,168.66,89.26,168.36,89.26z M168.58,88.45c0.14,0,0.26-0.02,0.37-0.08
					c0.31-0.16,0.54-0.4,0.69-0.71c0.09-0.15,0.14-0.37,0.15-0.67l0.02-0.43c-1.11,0.59-1.67,1.09-1.67,1.5
					c0,0.1,0.04,0.19,0.11,0.27C168.34,88.41,168.45,88.45,168.58,88.45z"/>
			</g>
		</g>
	</g>
</g>
<g id="Layer_2">
	<g>
		<g>
			<path class="st5" d="M75.13,38.29c2.45,1.44,4.38,3.37,5.8,5.8c1.42,2.43,2.13,5.08,2.13,7.96c0,2.88-0.71,5.54-2.13,7.99
				s-3.35,4.38-5.8,5.8c-2.45,1.42-5.11,2.13-7.99,2.13c-2.88,0-5.53-0.71-7.96-2.13c-2.43-1.42-4.35-3.35-5.77-5.8
				c-1.42-2.45-2.13-5.11-2.13-7.99c0-2.88,0.71-5.53,2.13-7.96c1.42-2.43,3.34-4.36,5.77-5.8c2.43-1.44,5.08-2.16,7.96-2.16
				C70.02,36.14,72.68,36.86,75.13,38.29z M62.38,43.8c-1.46,0.86-2.62,2.02-3.48,3.48c-0.86,1.46-1.29,3.05-1.29,4.77
				c0,1.72,0.43,3.32,1.29,4.8c0.86,1.48,2.02,2.65,3.48,3.51c1.46,0.86,3.05,1.29,4.77,1.29c1.72,0,3.32-0.43,4.8-1.29
				c1.48-0.86,2.65-2.03,3.51-3.51c0.86-1.48,1.29-3.08,1.29-4.8c0-1.72-0.43-3.31-1.29-4.77c-0.86-1.46-2.03-2.62-3.51-3.48
				c-1.48-0.86-3.08-1.29-4.8-1.29C65.42,42.51,63.83,42.94,62.38,43.8z"/>
			<path class="st5" d="M116.3,66.8c0,0.3-0.11,0.57-0.32,0.81c-0.22,0.24-0.47,0.35-0.77,0.35h-3.61c-0.3,0-0.57-0.12-0.81-0.35
				c-0.24-0.24-0.35-0.5-0.35-0.81l-0.26-17.14c0-2.36-0.71-4.21-2.12-5.54c-1.42-1.33-3.09-2-5.03-2c-1.93,0-3.62,0.67-5.06,2
				c-1.44,1.33-2.16,3.18-2.16,5.54L95.62,66.8c0,0.3-0.11,0.57-0.32,0.81c-0.22,0.24-0.49,0.35-0.84,0.35h-3.61
				c-0.3,0-0.57-0.12-0.81-0.35c-0.24-0.24-0.35-0.5-0.35-0.81L89.5,48.96l0.06-11.08c0-0.34,0.12-0.62,0.35-0.84
				c0.24-0.21,0.5-0.32,0.81-0.32h3.87c0.3,0,0.56,0.11,0.77,0.32c0.21,0.22,0.34,0.47,0.39,0.77v1.67
				c1.63-2.23,4.06-3.35,7.28-3.35c2.92,0,5.4,0.63,7.44,1.9c2.04,1.27,3.56,2.93,4.57,4.99c1.01,2.06,1.51,4.27,1.51,6.64
				L116.3,66.8z"/>
			<path class="st5" d="M154.7,31.63c0.09,4.6,0.13,8.91,0.13,12.95c0,4.08-0.04,6.83-0.13,8.25c-0.13,2.79-0.91,5.34-2.35,7.63
				c-1.44,2.3-3.35,4.12-5.73,5.48c-2.38,1.35-4.97,2.03-7.76,2.03c-2.88,0-5.53-0.71-7.96-2.13c-2.43-1.42-4.35-3.35-5.77-5.8
				S123,54.93,123,52.05c0-2.88,0.71-5.53,2.13-7.96c1.42-2.43,3.34-4.36,5.77-5.8c2.43-1.44,5.08-2.16,7.96-2.16
				c1.67,0,3.4,0.4,5.19,1.19c1.78,0.8,3.13,1.79,4.03,3c0.08,0.09,0.17,0.11,0.26,0.06c0.09-0.04,0.13-0.11,0.13-0.19l0.06-17.52
				c0-0.34,0.13-0.64,0.39-0.9c0.26-0.26,0.56-0.39,0.9-0.39h3.41c0.34,0,0.64,0.13,0.9,0.39c0.26,0.26,0.39,0.56,0.39,0.9
				C154.55,24.05,154.61,27.03,154.7,31.63z M147.03,47.31c-0.86-1.44-2.01-2.59-3.45-3.45c-1.44-0.86-3.02-1.29-4.74-1.29
				c-1.72,0-3.3,0.43-4.74,1.29c-1.44,0.86-2.59,2.01-3.45,3.45c-0.86,1.44-1.29,3.02-1.29,4.74c0,1.72,0.43,3.31,1.29,4.77
				c0.86,1.46,2.02,2.61,3.48,3.45c1.46,0.84,3.03,1.26,4.7,1.26c1.72,0,3.3-0.43,4.74-1.29c1.44-0.86,2.59-2.01,3.45-3.45
				c0.86-1.44,1.29-3.02,1.29-4.74C148.32,50.33,147.89,48.75,147.03,47.31z"/>
			<path class="st5" d="M168.42,19.9c0.21,0.22,0.32,0.47,0.32,0.77l0.19,10.31v25.51l-0.19,10.37c0,0.3-0.11,0.56-0.32,0.77
				c-0.22,0.22-0.47,0.32-0.77,0.32h-3.8c-0.3,0-0.56-0.11-0.77-0.32c-0.22-0.21-0.32-0.47-0.32-0.77l-0.19-10.37V30.98l0.19-10.31
				c0-0.3,0.11-0.56,0.32-0.77c0.21-0.21,0.47-0.32,0.77-0.32h3.8C167.95,19.58,168.2,19.69,168.42,19.9z"/>
			<path class="st5" d="M181.69,85.16c-0.26-0.39-0.3-0.8-0.13-1.22l5.73-15.98l-11.85-28.99c-0.04-0.09-0.06-0.21-0.06-0.39
				c0-0.34,0.11-0.62,0.32-0.84c0.22-0.21,0.47-0.32,0.77-0.32h3.99c0.47,0,0.82,0.24,1.03,0.71l9.28,21.2l9.21-21.2
				c0.22-0.47,0.58-0.71,1.1-0.71h3.93c0.39,0,0.69,0.16,0.9,0.48c0.21,0.32,0.26,0.68,0.13,1.06l-18.36,45.94
				c-0.09,0.26-0.25,0.46-0.48,0.61s-0.51,0.23-0.81,0.23h-3.61C182.31,85.74,181.95,85.55,181.69,85.16z"/>
		</g>
		
			<linearGradient id="SVGID_2_" gradientUnits="userSpaceOnUse" x1="49.3443" y1="33.7669" x2="3.124" y2="33.7669" gradientTransform="matrix(1 -1.652848e-03 1.652848e-03 1 -2.1725 3.4788)">
			<stop  offset="0" style="stop-color:#026C69"/>
			<stop  offset="0.0361" style="stop-color:#0A6B6C"/>
			<stop  offset="0.2152" style="stop-color:#2B6576"/>
			<stop  offset="0.3993" style="stop-color:#45617F"/>
			<stop  offset="0.588" style="stop-color:#575D85"/>
			<stop  offset="0.7843" style="stop-color:#625C89"/>
			<stop  offset="1" style="stop-color:#665B8A"/>
		</linearGradient>
		<path class="st6" d="M14.64,71.66c-1.69,0-3.08-1.34-3.13-3.04c-0.12-4.22,0.09-8.09,0.62-11.56c-3.6,2.16-6.7,3.23-6.96,3.32
			c-1.64,0.55-3.41-0.33-3.97-1.96c-0.55-1.64,0.32-3.41,1.96-3.97l0,0c0.06-0.02,3.59-1.25,7.15-3.63
			c-3.46-7.85-4.95-16.24-5.56-21.03c-0.84-6.67,0.2-13.16,2.93-18.29c2.6-4.87,6.54-8.11,10.55-8.64
			c4.45-0.6,9.66,2.01,10.96,11.13c0.98,6.91,0.01,14.66-2.9,23.12c2.21-0.58,4.6-0.71,7.12-0.36c9.14,1.34,14.16,7.66,13.81,17.33
			l-0.01,0.15c-0.43,5.06-2.86,9.28-6.83,11.87c-4.31,2.81-9.86,3.36-15.23,1.52l-0.32-0.13c-2.66-1.25-4.97-2.99-6.99-5.04
			c-0.12,1.89-0.15,3.9-0.08,6.01c0.05,1.73-1.31,3.17-3.04,3.22C14.7,71.66,14.67,71.66,14.64,71.66z M27.36,61.74
			c3.48,1.15,6.98,0.83,9.62-0.89c2.34-1.52,3.72-3.97,4-7.08c0.21-6.42-2.55-9.96-8.43-10.82c-3.45-0.47-6.37,0.33-8.65,2.39
			c-2.11,1.9-3.71,4.87-4.75,8.73C21.3,57.34,24,60.11,27.36,61.74z M19.39,9.03c-0.1,0-0.21,0.01-0.32,0.02
			C15.43,9.54,9.42,16.83,10.97,29c0.41,3.24,1.56,10.41,4.28,17.35c0.51-0.67,0.96-1.38,1.33-2.14c5.44-11.23,7.6-21.1,6.43-29.36
			C22.8,13.46,21.96,9.03,19.39,9.03z"/>
	</g>
	<g>
		<rect x="4.59" y="76.05" class="st7" width="175.04" height="18.21"/>
		<text transform="matrix(1 0 0 1 11.0138 88.2999)" class="st4 st8 st9">reconociendo nuestros lazos</text>
	</g>
</g>
</svg>
